<svg xmlns="http://www.w3.org/2000/svg" xmlns:xlink="http://www.w3.org/1999/xlink" width="1080" zoomAndPan="magnify" viewBox="0 0 810 242.999999" height="324" preserveAspectRatio="xMidYMid meet" version="1.0"><defs><filter x="0%" y="0%" width="100%" height="100%" id="5f44906457"><feColorMatrix values="0 0 0 0 1 0 0 0 0 1 0 0 0 0 1 0 0 0 1 0" color-interpolation-filters="sRGB"/></filter><g/><clipPath id="2a6879cd59"><path d="M 0 0 L 810 0 L 810 243 L 0 243 Z M 0 0 " clip-rule="nonzero"/></clipPath><linearGradient x1="-0.0420925" gradientTransform="matrix(0.749953, 0, 0, 0.749669, 0.031569, 7.228955)" y1="120.5" x2="1080.026064" gradientUnits="userSpaceOnUse" y2="120.5" id="27d4eca8df"><stop stop-opacity="1" stop-color="rgb(100%, 41.958618%, 29.019165%)" offset="0"/><stop stop-opacity="1" stop-color="rgb(100%, 41.958618%, 29.019165%)" offset="0.03125"/><stop stop-opacity="1" stop-color="rgb(100%, 41.958618%, 29.019165%)" offset="0.046875"/><stop stop-opacity="1" stop-color="rgb(99.980164%, 41.958618%, 29.066467%)" offset="0.0546875"/><stop stop-opacity="1" stop-color="rgb(99.839783%, 41.963196%, 29.403687%)" offset="0.0585938"/><stop stop-opacity="1" stop-color="rgb(99.720764%, 41.967773%, 29.693604%)" offset="0.0625"/><stop stop-opacity="1" stop-color="rgb(99.60022%, 41.970825%, 29.981995%)" offset="0.0664062"/><stop stop-opacity="1" stop-color="rgb(99.479675%, 41.973877%, 30.271912%)" offset="0.0703125"/><stop stop-opacity="1" stop-color="rgb(99.359131%, 41.976929%, 30.561829%)" offset="0.0742188"/><stop stop-opacity="1" stop-color="rgb(99.240112%, 41.981506%, 30.851746%)" offset="0.078125"/><stop stop-opacity="1" stop-color="rgb(99.119568%, 41.984558%, 31.141663%)" offset="0.0820313"/><stop stop-opacity="1" stop-color="rgb(99.000549%, 41.98761%, 31.43158%)" offset="0.0859375"/><stop stop-opacity="1" stop-color="rgb(98.880005%, 41.990662%, 31.721497%)" offset="0.0898438"/><stop stop-opacity="1" stop-color="rgb(98.75946%, 41.995239%, 32.011414%)" offset="0.09375"/><stop stop-opacity="1" stop-color="rgb(98.638916%, 41.998291%, 32.301331%)" offset="0.0976563"/><stop stop-opacity="1" stop-color="rgb(98.519897%, 42.001343%, 32.591248%)" offset="0.101563"/><stop stop-opacity="1" stop-color="rgb(98.399353%, 42.004395%, 32.881165%)" offset="0.105469"/><stop stop-opacity="1" stop-color="rgb(98.278809%, 42.008972%, 33.171082%)" offset="0.109375"/><stop stop-opacity="1" stop-color="rgb(98.158264%, 42.012024%, 33.460999%)" offset="0.113281"/><stop stop-opacity="1" stop-color="rgb(98.039246%, 42.015076%, 33.750916%)" offset="0.117188"/><stop stop-opacity="1" stop-color="rgb(97.918701%, 42.018127%, 34.040833%)" offset="0.121094"/><stop stop-opacity="1" stop-color="rgb(97.799683%, 42.022705%, 34.33075%)" offset="0.125"/><stop stop-opacity="1" stop-color="rgb(97.679138%, 42.025757%, 34.620667%)" offset="0.128906"/><stop stop-opacity="1" stop-color="rgb(97.558594%, 42.028809%, 34.910583%)" offset="0.132812"/><stop stop-opacity="1" stop-color="rgb(97.438049%, 42.03186%, 35.198975%)" offset="0.136719"/><stop stop-opacity="1" stop-color="rgb(97.319031%, 42.036438%, 35.488892%)" offset="0.140625"/><stop stop-opacity="1" stop-color="rgb(97.198486%, 42.03949%, 35.778809%)" offset="0.144531"/><stop stop-opacity="1" stop-color="rgb(97.079468%, 42.042542%, 36.068726%)" offset="0.148438"/><stop stop-opacity="1" stop-color="rgb(96.958923%, 42.045593%, 36.358643%)" offset="0.152344"/><stop stop-opacity="1" stop-color="rgb(96.838379%, 42.050171%, 36.64856%)" offset="0.15625"/><stop stop-opacity="1" stop-color="rgb(96.717834%, 42.053223%, 36.938477%)" offset="0.160156"/><stop stop-opacity="1" stop-color="rgb(96.598816%, 42.0578%, 37.228394%)" offset="0.164063"/><stop stop-opacity="1" stop-color="rgb(96.478271%, 42.060852%, 37.518311%)" offset="0.167969"/><stop stop-opacity="1" stop-color="rgb(96.359253%, 42.063904%, 37.808228%)" offset="0.171875"/><stop stop-opacity="1" stop-color="rgb(96.238708%, 42.066956%, 38.098145%)" offset="0.175781"/><stop stop-opacity="1" stop-color="rgb(96.118164%, 42.071533%, 38.388062%)" offset="0.179688"/><stop stop-opacity="1" stop-color="rgb(95.99762%, 42.074585%, 38.677979%)" offset="0.183594"/><stop stop-opacity="1" stop-color="rgb(95.878601%, 42.077637%, 38.967896%)" offset="0.1875"/><stop stop-opacity="1" stop-color="rgb(95.758057%, 42.080688%, 39.257812%)" offset="0.191406"/><stop stop-opacity="1" stop-color="rgb(95.639038%, 42.085266%, 39.547729%)" offset="0.195312"/><stop stop-opacity="1" stop-color="rgb(95.518494%, 42.088318%, 39.837646%)" offset="0.199219"/><stop stop-opacity="1" stop-color="rgb(95.397949%, 42.09137%, 40.127563%)" offset="0.203125"/><stop stop-opacity="1" stop-color="rgb(95.277405%, 42.094421%, 40.415955%)" offset="0.207031"/><stop stop-opacity="1" stop-color="rgb(95.158386%, 42.098999%, 40.705872%)" offset="0.210938"/><stop stop-opacity="1" stop-color="rgb(95.037842%, 42.102051%, 40.995789%)" offset="0.214844"/><stop stop-opacity="1" stop-color="rgb(94.918823%, 42.105103%, 41.285706%)" offset="0.21875"/><stop stop-opacity="1" stop-color="rgb(94.798279%, 42.108154%, 41.575623%)" offset="0.222656"/><stop stop-opacity="1" stop-color="rgb(94.677734%, 42.112732%, 41.86554%)" offset="0.226563"/><stop stop-opacity="1" stop-color="rgb(94.55719%, 42.115784%, 42.155457%)" offset="0.230469"/><stop stop-opacity="1" stop-color="rgb(94.438171%, 42.118835%, 42.445374%)" offset="0.234375"/><stop stop-opacity="1" stop-color="rgb(94.317627%, 42.121887%, 42.735291%)" offset="0.238281"/><stop stop-opacity="1" stop-color="rgb(94.197083%, 42.126465%, 43.025208%)" offset="0.242188"/><stop stop-opacity="1" stop-color="rgb(94.076538%, 42.129517%, 43.315125%)" offset="0.246094"/><stop stop-opacity="1" stop-color="rgb(93.95752%, 42.132568%, 43.605042%)" offset="0.25"/><stop stop-opacity="1" stop-color="rgb(93.836975%, 42.13562%, 43.894958%)" offset="0.253906"/><stop stop-opacity="1" stop-color="rgb(93.717957%, 42.140198%, 44.184875%)" offset="0.257813"/><stop stop-opacity="1" stop-color="rgb(93.597412%, 42.14325%, 44.474792%)" offset="0.261719"/><stop stop-opacity="1" stop-color="rgb(93.476868%, 42.146301%, 44.764709%)" offset="0.265625"/><stop stop-opacity="1" stop-color="rgb(93.356323%, 42.149353%, 45.054626%)" offset="0.269531"/><stop stop-opacity="1" stop-color="rgb(93.237305%, 42.153931%, 45.344543%)" offset="0.273438"/><stop stop-opacity="1" stop-color="rgb(93.11676%, 42.156982%, 45.632935%)" offset="0.277344"/><stop stop-opacity="1" stop-color="rgb(92.997742%, 42.160034%, 45.922852%)" offset="0.28125"/><stop stop-opacity="1" stop-color="rgb(92.877197%, 42.163086%, 46.212769%)" offset="0.285156"/><stop stop-opacity="1" stop-color="rgb(92.756653%, 42.167664%, 46.502686%)" offset="0.289063"/><stop stop-opacity="1" stop-color="rgb(92.636108%, 42.170715%, 46.792603%)" offset="0.292969"/><stop stop-opacity="1" stop-color="rgb(92.51709%, 42.175293%, 47.08252%)" offset="0.296875"/><stop stop-opacity="1" stop-color="rgb(92.396545%, 42.178345%, 47.372437%)" offset="0.300781"/><stop stop-opacity="1" stop-color="rgb(92.277527%, 42.181396%, 47.662354%)" offset="0.304688"/><stop stop-opacity="1" stop-color="rgb(92.156982%, 42.184448%, 47.952271%)" offset="0.308594"/><stop stop-opacity="1" stop-color="rgb(92.036438%, 42.189026%, 48.242188%)" offset="0.3125"/><stop stop-opacity="1" stop-color="rgb(91.915894%, 42.192078%, 48.532104%)" offset="0.316406"/><stop stop-opacity="1" stop-color="rgb(91.796875%, 42.195129%, 48.822021%)" offset="0.320313"/><stop stop-opacity="1" stop-color="rgb(91.676331%, 42.198181%, 49.111938%)" offset="0.324219"/><stop stop-opacity="1" stop-color="rgb(91.557312%, 42.202759%, 49.401855%)" offset="0.328125"/><stop stop-opacity="1" stop-color="rgb(91.436768%, 42.205811%, 49.691772%)" offset="0.332031"/><stop stop-opacity="1" stop-color="rgb(91.316223%, 42.208862%, 49.981689%)" offset="0.335938"/><stop stop-opacity="1" stop-color="rgb(91.195679%, 42.211914%, 50.271606%)" offset="0.339844"/><stop stop-opacity="1" stop-color="rgb(91.07666%, 42.216492%, 50.561523%)" offset="0.34375"/><stop stop-opacity="1" stop-color="rgb(90.956116%, 42.219543%, 50.849915%)" offset="0.347656"/><stop stop-opacity="1" stop-color="rgb(90.835571%, 42.222595%, 51.139832%)" offset="0.351563"/><stop stop-opacity="1" stop-color="rgb(90.715027%, 42.225647%, 51.429749%)" offset="0.355469"/><stop stop-opacity="1" stop-color="rgb(90.596008%, 42.230225%, 51.719666%)" offset="0.359375"/><stop stop-opacity="1" stop-color="rgb(90.475464%, 42.233276%, 52.009583%)" offset="0.363281"/><stop stop-opacity="1" stop-color="rgb(90.356445%, 42.236328%, 52.2995%)" offset="0.367188"/><stop stop-opacity="1" stop-color="rgb(90.235901%, 42.23938%, 52.589417%)" offset="0.371094"/><stop stop-opacity="1" stop-color="rgb(90.115356%, 42.243958%, 52.879333%)" offset="0.375"/><stop stop-opacity="1" stop-color="rgb(89.994812%, 42.247009%, 53.16925%)" offset="0.378906"/><stop stop-opacity="1" stop-color="rgb(89.875793%, 42.250061%, 53.459167%)" offset="0.382812"/><stop stop-opacity="1" stop-color="rgb(89.755249%, 42.253113%, 53.749084%)" offset="0.386719"/><stop stop-opacity="1" stop-color="rgb(89.63623%, 42.25769%, 54.039001%)" offset="0.390625"/><stop stop-opacity="1" stop-color="rgb(89.515686%, 42.260742%, 54.328918%)" offset="0.394531"/><stop stop-opacity="1" stop-color="rgb(89.395142%, 42.263794%, 54.618835%)" offset="0.398438"/><stop stop-opacity="1" stop-color="rgb(89.274597%, 42.266846%, 54.908752%)" offset="0.402344"/><stop stop-opacity="1" stop-color="rgb(89.155579%, 42.271423%, 55.198669%)" offset="0.40625"/><stop stop-opacity="1" stop-color="rgb(89.035034%, 42.274475%, 55.488586%)" offset="0.410156"/><stop stop-opacity="1" stop-color="rgb(88.916016%, 42.277527%, 55.778503%)" offset="0.414062"/><stop stop-opacity="1" stop-color="rgb(88.795471%, 42.280579%, 56.066895%)" offset="0.417969"/><stop stop-opacity="1" stop-color="rgb(88.674927%, 42.285156%, 56.356812%)" offset="0.421875"/><stop stop-opacity="1" stop-color="rgb(88.554382%, 42.288208%, 56.646729%)" offset="0.425781"/><stop stop-opacity="1" stop-color="rgb(88.435364%, 42.292786%, 56.936646%)" offset="0.429688"/><stop stop-opacity="1" stop-color="rgb(88.314819%, 42.295837%, 57.226562%)" offset="0.433594"/><stop stop-opacity="1" stop-color="rgb(88.195801%, 42.298889%, 57.516479%)" offset="0.4375"/><stop stop-opacity="1" stop-color="rgb(88.075256%, 42.301941%, 57.806396%)" offset="0.441406"/><stop stop-opacity="1" stop-color="rgb(87.954712%, 42.306519%, 58.096313%)" offset="0.445313"/><stop stop-opacity="1" stop-color="rgb(87.834167%, 42.30957%, 58.38623%)" offset="0.449219"/><stop stop-opacity="1" stop-color="rgb(87.715149%, 42.312622%, 58.676147%)" offset="0.453125"/><stop stop-opacity="1" stop-color="rgb(87.594604%, 42.315674%, 58.966064%)" offset="0.457031"/><stop stop-opacity="1" stop-color="rgb(87.47406%, 42.320251%, 59.255981%)" offset="0.460938"/><stop stop-opacity="1" stop-color="rgb(87.353516%, 42.323303%, 59.545898%)" offset="0.464844"/><stop stop-opacity="1" stop-color="rgb(87.234497%, 42.326355%, 59.835815%)" offset="0.46875"/><stop stop-opacity="1" stop-color="rgb(87.113953%, 42.329407%, 60.125732%)" offset="0.472656"/><stop stop-opacity="1" stop-color="rgb(86.994934%, 42.333984%, 60.415649%)" offset="0.476563"/><stop stop-opacity="1" stop-color="rgb(86.87439%, 42.337036%, 60.705566%)" offset="0.480469"/><stop stop-opacity="1" stop-color="rgb(86.753845%, 42.340088%, 60.995483%)" offset="0.484375"/><stop stop-opacity="1" stop-color="rgb(86.633301%, 42.34314%, 61.2854%)" offset="0.488281"/><stop stop-opacity="1" stop-color="rgb(86.514282%, 42.347717%, 61.575317%)" offset="0.492188"/><stop stop-opacity="1" stop-color="rgb(86.393738%, 42.350769%, 61.863708%)" offset="0.496094"/><stop stop-opacity="1" stop-color="rgb(86.274719%, 42.353821%, 62.153625%)" offset="0.5"/><stop stop-opacity="1" stop-color="rgb(86.154175%, 42.356873%, 62.443542%)" offset="0.503906"/><stop stop-opacity="1" stop-color="rgb(86.03363%, 42.36145%, 62.733459%)" offset="0.507812"/><stop stop-opacity="1" stop-color="rgb(85.913086%, 42.364502%, 63.023376%)" offset="0.511719"/><stop stop-opacity="1" stop-color="rgb(85.794067%, 42.367554%, 63.313293%)" offset="0.515625"/><stop stop-opacity="1" stop-color="rgb(85.673523%, 42.370605%, 63.60321%)" offset="0.519531"/><stop stop-opacity="1" stop-color="rgb(85.554504%, 42.375183%, 63.893127%)" offset="0.523438"/><stop stop-opacity="1" stop-color="rgb(85.43396%, 42.378235%, 64.183044%)" offset="0.527344"/><stop stop-opacity="1" stop-color="rgb(85.313416%, 42.381287%, 64.472961%)" offset="0.53125"/><stop stop-opacity="1" stop-color="rgb(85.192871%, 42.384338%, 64.762878%)" offset="0.535156"/><stop stop-opacity="1" stop-color="rgb(85.073853%, 42.388916%, 65.052795%)" offset="0.539063"/><stop stop-opacity="1" stop-color="rgb(84.953308%, 42.391968%, 65.342712%)" offset="0.542969"/><stop stop-opacity="1" stop-color="rgb(84.83429%, 42.39502%, 65.632629%)" offset="0.546875"/><stop stop-opacity="1" stop-color="rgb(84.713745%, 42.398071%, 65.922546%)" offset="0.550781"/><stop stop-opacity="1" stop-color="rgb(84.593201%, 42.402649%, 66.212463%)" offset="0.554688"/><stop stop-opacity="1" stop-color="rgb(84.472656%, 42.405701%, 66.50238%)" offset="0.558594"/><stop stop-opacity="1" stop-color="rgb(84.353638%, 42.410278%, 66.792297%)" offset="0.5625"/><stop stop-opacity="1" stop-color="rgb(84.233093%, 42.41333%, 67.080688%)" offset="0.566406"/><stop stop-opacity="1" stop-color="rgb(84.112549%, 42.416382%, 67.370605%)" offset="0.570313"/><stop stop-opacity="1" stop-color="rgb(83.992004%, 42.419434%, 67.660522%)" offset="0.574219"/><stop stop-opacity="1" stop-color="rgb(83.872986%, 42.424011%, 67.950439%)" offset="0.578125"/><stop stop-opacity="1" stop-color="rgb(83.752441%, 42.427063%, 68.240356%)" offset="0.582031"/><stop stop-opacity="1" stop-color="rgb(83.633423%, 42.430115%, 68.530273%)" offset="0.585938"/><stop stop-opacity="1" stop-color="rgb(83.512878%, 42.433167%, 68.82019%)" offset="0.589844"/><stop stop-opacity="1" stop-color="rgb(83.392334%, 42.437744%, 69.110107%)" offset="0.59375"/><stop stop-opacity="1" stop-color="rgb(83.27179%, 42.440796%, 69.400024%)" offset="0.597656"/><stop stop-opacity="1" stop-color="rgb(83.152771%, 42.443848%, 69.689941%)" offset="0.601563"/><stop stop-opacity="1" stop-color="rgb(83.032227%, 42.446899%, 69.979858%)" offset="0.605469"/><stop stop-opacity="1" stop-color="rgb(82.913208%, 42.451477%, 70.269775%)" offset="0.609375"/><stop stop-opacity="1" stop-color="rgb(82.792664%, 42.454529%, 70.559692%)" offset="0.613281"/><stop stop-opacity="1" stop-color="rgb(82.672119%, 42.457581%, 70.849609%)" offset="0.617188"/><stop stop-opacity="1" stop-color="rgb(82.551575%, 42.460632%, 71.139526%)" offset="0.621094"/><stop stop-opacity="1" stop-color="rgb(82.432556%, 42.46521%, 71.429443%)" offset="0.625"/><stop stop-opacity="1" stop-color="rgb(82.312012%, 42.468262%, 71.71936%)" offset="0.628906"/><stop stop-opacity="1" stop-color="rgb(82.192993%, 42.471313%, 72.009277%)" offset="0.632813"/><stop stop-opacity="1" stop-color="rgb(82.072449%, 42.474365%, 72.297668%)" offset="0.636719"/><stop stop-opacity="1" stop-color="rgb(81.951904%, 42.478943%, 72.587585%)" offset="0.640625"/><stop stop-opacity="1" stop-color="rgb(81.83136%, 42.481995%, 72.877502%)" offset="0.644531"/><stop stop-opacity="1" stop-color="rgb(81.712341%, 42.485046%, 73.167419%)" offset="0.648438"/><stop stop-opacity="1" stop-color="rgb(81.591797%, 42.488098%, 73.457336%)" offset="0.652344"/><stop stop-opacity="1" stop-color="rgb(81.472778%, 42.492676%, 73.747253%)" offset="0.65625"/><stop stop-opacity="1" stop-color="rgb(81.352234%, 42.495728%, 74.03717%)" offset="0.660156"/><stop stop-opacity="1" stop-color="rgb(81.231689%, 42.498779%, 74.327087%)" offset="0.664063"/><stop stop-opacity="1" stop-color="rgb(81.111145%, 42.501831%, 74.617004%)" offset="0.667969"/><stop stop-opacity="1" stop-color="rgb(80.992126%, 42.506409%, 74.906921%)" offset="0.671875"/><stop stop-opacity="1" stop-color="rgb(80.871582%, 42.50946%, 75.196838%)" offset="0.675781"/><stop stop-opacity="1" stop-color="rgb(80.751038%, 42.512512%, 75.486755%)" offset="0.679688"/><stop stop-opacity="1" stop-color="rgb(80.630493%, 42.515564%, 75.776672%)" offset="0.683594"/><stop stop-opacity="1" stop-color="rgb(80.511475%, 42.520142%, 76.066589%)" offset="0.6875"/><stop stop-opacity="1" stop-color="rgb(80.39093%, 42.523193%, 76.356506%)" offset="0.691406"/><stop stop-opacity="1" stop-color="rgb(80.271912%, 42.526245%, 76.646423%)" offset="0.695313"/><stop stop-opacity="1" stop-color="rgb(80.151367%, 42.529297%, 76.93634%)" offset="0.699219"/><stop stop-opacity="1" stop-color="rgb(80.030823%, 42.533875%, 77.226257%)" offset="0.703125"/><stop stop-opacity="1" stop-color="rgb(79.910278%, 42.536926%, 77.514648%)" offset="0.707031"/><stop stop-opacity="1" stop-color="rgb(79.79126%, 42.541504%, 77.804565%)" offset="0.710938"/><stop stop-opacity="1" stop-color="rgb(79.670715%, 42.544556%, 78.094482%)" offset="0.714844"/><stop stop-opacity="1" stop-color="rgb(79.551697%, 42.547607%, 78.384399%)" offset="0.71875"/><stop stop-opacity="1" stop-color="rgb(79.431152%, 42.550659%, 78.674316%)" offset="0.722656"/><stop stop-opacity="1" stop-color="rgb(79.310608%, 42.555237%, 78.964233%)" offset="0.726562"/><stop stop-opacity="1" stop-color="rgb(79.190063%, 42.558289%, 79.25415%)" offset="0.730469"/><stop stop-opacity="1" stop-color="rgb(79.071045%, 42.56134%, 79.544067%)" offset="0.734375"/><stop stop-opacity="1" stop-color="rgb(78.9505%, 42.564392%, 79.833984%)" offset="0.738281"/><stop stop-opacity="1" stop-color="rgb(78.831482%, 42.56897%, 80.123901%)" offset="0.742188"/><stop stop-opacity="1" stop-color="rgb(78.710938%, 42.572021%, 80.413818%)" offset="0.746094"/><stop stop-opacity="1" stop-color="rgb(78.590393%, 42.575073%, 80.703735%)" offset="0.75"/><stop stop-opacity="1" stop-color="rgb(78.469849%, 42.578125%, 80.993652%)" offset="0.753906"/><stop stop-opacity="1" stop-color="rgb(78.35083%, 42.582703%, 81.283569%)" offset="0.757812"/><stop stop-opacity="1" stop-color="rgb(78.230286%, 42.585754%, 81.573486%)" offset="0.761719"/><stop stop-opacity="1" stop-color="rgb(78.111267%, 42.588806%, 81.863403%)" offset="0.765625"/><stop stop-opacity="1" stop-color="rgb(77.990723%, 42.591858%, 82.15332%)" offset="0.769531"/><stop stop-opacity="1" stop-color="rgb(77.870178%, 42.596436%, 82.443237%)" offset="0.773438"/><stop stop-opacity="1" stop-color="rgb(77.749634%, 42.599487%, 82.731628%)" offset="0.777344"/><stop stop-opacity="1" stop-color="rgb(77.630615%, 42.602539%, 83.021545%)" offset="0.78125"/><stop stop-opacity="1" stop-color="rgb(77.510071%, 42.605591%, 83.311462%)" offset="0.785156"/><stop stop-opacity="1" stop-color="rgb(77.391052%, 42.610168%, 83.601379%)" offset="0.789062"/><stop stop-opacity="1" stop-color="rgb(77.270508%, 42.61322%, 83.891296%)" offset="0.792969"/><stop stop-opacity="1" stop-color="rgb(77.149963%, 42.616272%, 84.181213%)" offset="0.796875"/><stop stop-opacity="1" stop-color="rgb(77.029419%, 42.619324%, 84.47113%)" offset="0.800781"/><stop stop-opacity="1" stop-color="rgb(76.9104%, 42.623901%, 84.761047%)" offset="0.804687"/><stop stop-opacity="1" stop-color="rgb(76.789856%, 42.626953%, 85.050964%)" offset="0.808594"/><stop stop-opacity="1" stop-color="rgb(76.669312%, 42.630005%, 85.340881%)" offset="0.8125"/><stop stop-opacity="1" stop-color="rgb(76.548767%, 42.633057%, 85.630798%)" offset="0.816406"/><stop stop-opacity="1" stop-color="rgb(76.429749%, 42.637634%, 85.920715%)" offset="0.820312"/><stop stop-opacity="1" stop-color="rgb(76.309204%, 42.640686%, 86.210632%)" offset="0.824219"/><stop stop-opacity="1" stop-color="rgb(76.190186%, 42.643738%, 86.500549%)" offset="0.828125"/><stop stop-opacity="1" stop-color="rgb(76.069641%, 42.64679%, 86.790466%)" offset="0.832031"/><stop stop-opacity="1" stop-color="rgb(75.949097%, 42.651367%, 87.080383%)" offset="0.835937"/><stop stop-opacity="1" stop-color="rgb(75.828552%, 42.654419%, 87.3703%)" offset="0.839844"/><stop stop-opacity="1" stop-color="rgb(75.709534%, 42.658997%, 87.660217%)" offset="0.84375"/><stop stop-opacity="1" stop-color="rgb(75.588989%, 42.662048%, 87.948608%)" offset="0.847656"/><stop stop-opacity="1" stop-color="rgb(75.469971%, 42.6651%, 88.238525%)" offset="0.851562"/><stop stop-opacity="1" stop-color="rgb(75.349426%, 42.668152%, 88.528442%)" offset="0.855469"/><stop stop-opacity="1" stop-color="rgb(75.228882%, 42.672729%, 88.818359%)" offset="0.859375"/><stop stop-opacity="1" stop-color="rgb(75.108337%, 42.675781%, 89.108276%)" offset="0.863281"/><stop stop-opacity="1" stop-color="rgb(74.989319%, 42.678833%, 89.398193%)" offset="0.867187"/><stop stop-opacity="1" stop-color="rgb(74.868774%, 42.681885%, 89.68811%)" offset="0.871094"/><stop stop-opacity="1" stop-color="rgb(74.749756%, 42.686462%, 89.978027%)" offset="0.875"/><stop stop-opacity="1" stop-color="rgb(74.629211%, 42.689514%, 90.267944%)" offset="0.878906"/><stop stop-opacity="1" stop-color="rgb(74.508667%, 42.692566%, 90.557861%)" offset="0.882812"/><stop stop-opacity="1" stop-color="rgb(74.388123%, 42.695618%, 90.847778%)" offset="0.886719"/><stop stop-opacity="1" stop-color="rgb(74.269104%, 42.700195%, 91.137695%)" offset="0.890625"/><stop stop-opacity="1" stop-color="rgb(74.14856%, 42.703247%, 91.427612%)" offset="0.894531"/><stop stop-opacity="1" stop-color="rgb(74.029541%, 42.706299%, 91.717529%)" offset="0.898437"/><stop stop-opacity="1" stop-color="rgb(73.908997%, 42.709351%, 92.007446%)" offset="0.902344"/><stop stop-opacity="1" stop-color="rgb(73.788452%, 42.713928%, 92.297363%)" offset="0.90625"/><stop stop-opacity="1" stop-color="rgb(73.667908%, 42.71698%, 92.58728%)" offset="0.910156"/><stop stop-opacity="1" stop-color="rgb(73.548889%, 42.720032%, 92.877197%)" offset="0.914062"/><stop stop-opacity="1" stop-color="rgb(73.428345%, 42.723083%, 93.165588%)" offset="0.917969"/><stop stop-opacity="1" stop-color="rgb(73.3078%, 42.727661%, 93.455505%)" offset="0.921875"/><stop stop-opacity="1" stop-color="rgb(73.187256%, 42.730713%, 93.745422%)" offset="0.925781"/><stop stop-opacity="1" stop-color="rgb(73.068237%, 42.733765%, 94.035339%)" offset="0.929687"/><stop stop-opacity="1" stop-color="rgb(72.947693%, 42.736816%, 94.325256%)" offset="0.933594"/><stop stop-opacity="1" stop-color="rgb(72.828674%, 42.741394%, 94.615173%)" offset="0.9375"/><stop stop-opacity="1" stop-color="rgb(72.70813%, 42.744446%, 94.90509%)" offset="0.941406"/><stop stop-opacity="1" stop-color="rgb(72.587585%, 42.747498%, 95.195007%)" offset="0.945312"/><stop stop-opacity="1" stop-color="rgb(72.567749%, 42.747498%, 95.24231%)" offset="0.953125"/><stop stop-opacity="1" stop-color="rgb(72.549438%, 42.749023%, 95.289612%)" offset="0.96875"/><stop stop-opacity="1" stop-color="rgb(72.549438%, 42.749023%, 95.289612%)" offset="1"/></linearGradient><clipPath id="665356d935"><rect x="0" width="810" y="0" height="243"/></clipPath><clipPath id="39cee41b42"><rect x="0" width="810" y="0" height="243"/></clipPath><clipPath id="3f24185a49"><rect x="0" width="810" y="0" height="243"/></clipPath><mask id="85afd29d11"><g filter="url(#5f44906457)"><g transform="matrix(1, 0, 0, 1, 0, -0.000000000000048546)"><g clip-path="url(#3f24185a49)"><g transform="matrix(1, 0, 0, 1, 0, -0.000000000000048546)"><g clip-path="url(#39cee41b42)"><g fill="#000000" fill-opacity="1"><g transform="translate(43.242187, 143.308465)"><g><path d="M 32.765625 -91.65625 L 32.765625 0 L 7.28125 0 L 7.28125 -91.65625 Z M 32.765625 -91.65625 "/></g></g></g><g fill="#000000" fill-opacity="1"><g transform="translate(83.284571, 143.308465)"><g><path d="M 92.1875 0 L 66.703125 0 L 32.765625 -51.21875 L 32.765625 0 L 7.28125 0 L 7.28125 -91.65625 L 32.765625 -91.65625 L 66.703125 -39.78125 L 66.703125 -91.65625 L 92.1875 -91.65625 Z M 92.1875 0 "/></g></g></g><g fill="#000000" fill-opacity="1"><g transform="translate(182.740487, 143.308465)"><g><path d="M 69.421875 -91.65625 L 69.421875 -71.375 L 32.765625 -71.375 L 32.765625 -55.25 L 59.8125 -55.25 L 59.8125 -35.890625 L 32.765625 -35.890625 L 32.765625 0 L 7.28125 0 L 7.28125 -91.65625 Z M 69.421875 -91.65625 "/></g></g></g><g fill="#000000" fill-opacity="1"><g transform="translate(255.674826, 143.308465)"><g><path d="M 51.21875 0.90625 C 42.644531 0.90625 34.757812 -1.109375 27.5625 -5.140625 C 20.363281 -9.171875 14.660156 -14.757812 10.453125 -21.90625 C 6.253906 -29.0625 4.15625 -37.144531 4.15625 -46.15625 C 4.15625 -55.164062 6.253906 -63.242188 10.453125 -70.390625 C 14.660156 -77.546875 20.363281 -83.117188 27.5625 -87.109375 C 34.757812 -91.097656 42.644531 -93.09375 51.21875 -93.09375 C 59.894531 -93.09375 67.804688 -91.097656 74.953125 -87.109375 C 82.109375 -83.117188 87.765625 -77.546875 91.921875 -70.390625 C 96.078125 -63.242188 98.15625 -55.164062 98.15625 -46.15625 C 98.15625 -37.144531 96.078125 -29.0625 91.921875 -21.90625 C 87.765625 -14.757812 82.085938 -9.171875 74.890625 -5.140625 C 67.691406 -1.109375 59.800781 0.90625 51.21875 0.90625 Z M 51.21875 -22.75 C 57.726562 -22.75 62.863281 -24.875 66.625 -29.125 C 70.394531 -33.375 72.28125 -39.050781 72.28125 -46.15625 C 72.28125 -53.4375 70.394531 -59.175781 66.625 -63.375 C 62.863281 -67.582031 57.726562 -69.6875 51.21875 -69.6875 C 44.632812 -69.6875 39.476562 -67.582031 35.75 -63.375 C 32.019531 -59.175781 30.15625 -53.4375 30.15625 -46.15625 C 30.15625 -38.957031 32.019531 -33.253906 35.75 -29.046875 C 39.476562 -24.847656 44.632812 -22.75 51.21875 -22.75 Z M 51.21875 -22.75 "/></g></g></g><g fill="#000000" fill-opacity="1"><g transform="translate(357.990907, 143.308465)"><g><path d="M 65.78125 -47.0625 C 71.15625 -45.851562 75.425781 -43.1875 78.59375 -39.0625 C 81.757812 -34.945312 83.34375 -30.25 83.34375 -24.96875 C 83.34375 -17.164062 80.65625 -11.050781 75.28125 -6.625 C 69.90625 -2.207031 62.363281 0 52.65625 0 L 7.28125 0 L 7.28125 -91.65625 L 51.21875 -91.65625 C 60.582031 -91.65625 67.929688 -89.570312 73.265625 -85.40625 C 78.597656 -81.25 81.265625 -75.40625 81.265625 -67.875 C 81.265625 -62.5 79.851562 -58.007812 77.03125 -54.40625 C 74.21875 -50.8125 70.46875 -48.363281 65.78125 -47.0625 Z M 32.765625 -55.25 L 45.640625 -55.25 C 52.046875 -55.25 55.25 -57.894531 55.25 -63.1875 C 55.25 -68.644531 52.046875 -71.375 45.640625 -71.375 L 32.765625 -71.375 Z M 47.578125 -20.546875 C 53.992188 -20.546875 57.203125 -23.234375 57.203125 -28.609375 C 57.203125 -31.378906 56.359375 -33.5 54.671875 -34.96875 C 52.984375 -36.445312 50.578125 -37.1875 47.453125 -37.1875 L 32.765625 -37.1875 L 32.765625 -20.546875 Z M 47.578125 -20.546875 "/></g></g></g><g fill="#000000" fill-opacity="1"><g transform="translate(445.226102, 143.308465)"><g><path d="M 90.625 -91.65625 L 58.375 -29.125 L 58.375 0 L 32.765625 0 L 32.765625 -29.125 L 0.515625 -91.65625 L 29.640625 -91.65625 L 45.765625 -56.296875 L 61.890625 -91.65625 Z M 90.625 -91.65625 "/></g></g></g><g fill="#000000" fill-opacity="1"><g transform="translate(536.361535, 143.308465)"><g><path d="M 76.3125 -91.65625 L 76.3125 -71.375 L 51.875 -71.375 L 51.875 0 L 26.390625 0 L 26.390625 -71.375 L 2.203125 -71.375 L 2.203125 -91.65625 Z M 76.3125 -91.65625 "/></g></g></g><g fill="#000000" fill-opacity="1"><g transform="translate(614.88622, 143.308465)"><g><path d="M 32.765625 -71.25 L 32.765625 -56.296875 L 62.015625 -56.296875 L 62.015625 -36.921875 L 32.765625 -36.921875 L 32.765625 -20.40625 L 65.921875 -20.40625 L 65.921875 0 L 7.28125 0 L 7.28125 -91.65625 L 65.921875 -91.65625 L 65.921875 -71.25 Z M 32.765625 -71.25 "/></g></g></g><g fill="#000000" fill-opacity="1"><g transform="translate(686.13045, 143.308465)"><g><path d="M 41.859375 0.90625 C 31.203125 0.90625 22.445312 -1.625 15.59375 -6.6875 C 8.75 -11.757812 5.066406 -19.019531 4.546875 -28.46875 L 31.71875 -28.46875 C 31.976562 -25.257812 32.929688 -22.921875 34.578125 -21.453125 C 36.222656 -19.984375 38.347656 -19.25 40.953125 -19.25 C 43.296875 -19.25 45.222656 -19.832031 46.734375 -21 C 48.253906 -22.164062 49.015625 -23.789062 49.015625 -25.875 C 49.015625 -28.5625 47.753906 -30.640625 45.234375 -32.109375 C 42.722656 -33.585938 38.65625 -35.234375 33.03125 -37.046875 C 27.039062 -39.046875 22.203125 -40.976562 18.515625 -42.84375 C 14.835938 -44.707031 11.632812 -47.4375 8.90625 -51.03125 C 6.175781 -54.625 4.8125 -59.328125 4.8125 -65.140625 C 4.8125 -71.035156 6.285156 -76.082031 9.234375 -80.28125 C 12.179688 -84.488281 16.253906 -87.675781 21.453125 -89.84375 C 26.648438 -92.007812 32.546875 -93.09375 39.140625 -93.09375 C 49.796875 -93.09375 58.304688 -90.597656 64.671875 -85.609375 C 71.046875 -80.628906 74.453125 -73.632812 74.890625 -64.625 L 47.203125 -64.625 C 47.109375 -67.394531 46.257812 -69.472656 44.65625 -70.859375 C 43.050781 -72.242188 40.992188 -72.9375 38.484375 -72.9375 C 36.578125 -72.9375 35.015625 -72.375 33.796875 -71.25 C 32.585938 -70.125 31.984375 -68.519531 31.984375 -66.4375 C 31.984375 -64.707031 32.65625 -63.210938 34 -61.953125 C 35.34375 -60.691406 37.007812 -59.609375 39 -58.703125 C 41 -57.796875 43.945312 -56.644531 47.84375 -55.25 C 53.65625 -53.257812 58.445312 -51.289062 62.21875 -49.34375 C 65.988281 -47.394531 69.238281 -44.664062 71.96875 -41.15625 C 74.695312 -37.644531 76.0625 -33.203125 76.0625 -27.828125 C 76.0625 -22.359375 74.695312 -17.457031 71.96875 -13.125 C 69.238281 -8.789062 65.289062 -5.367188 60.125 -2.859375 C 54.96875 -0.347656 48.878906 0.90625 41.859375 0.90625 Z M 41.859375 0.90625 "/></g></g></g></g></g></g></g></g></mask><clipPath id="fb0431d7e7"><path d="M 0 0 L 810 0 L 810 243 L 0 243 Z M 0 0 " clip-rule="nonzero"/></clipPath><clipPath id="ceded71dad"><rect x="0" width="810" y="0" height="243"/></clipPath><clipPath id="f5fd5b2940"><rect x="0" width="810" y="0" height="243"/></clipPath></defs><g transform="matrix(1, 0, 0, 1, 0, -0.000000000000048546)"><g clip-path="url(#f5fd5b2940)"><g mask="url(#85afd29d11)"><g transform="matrix(1, 0, 0, 1, 0, -0.000000000000048546)"><g clip-path="url(#ceded71dad)"><g clip-path="url(#fb0431d7e7)"><rect x="-294.84" fill="url(#27d4eca8df)" width="1399.68" y="-88.452" height="419.903998"/></g></g></g></g></g></g><g fill="#ffffff" fill-opacity="1"><g transform="translate(36.932814, 210.992988)"><g><path d="M 25.296875 -12.390625 C 25.296875 -11.703125 25.253906 -10.984375 25.171875 -10.234375 L 8.515625 -10.234375 C 8.628906 -8.742188 9.109375 -7.601562 9.953125 -6.8125 C 10.804688 -6.03125 11.847656 -5.640625 13.078125 -5.640625 C 14.910156 -5.640625 16.1875 -6.410156 16.90625 -7.953125 L 24.75 -7.953125 C 24.34375 -6.378906 23.613281 -4.960938 22.5625 -3.703125 C 21.519531 -2.441406 20.207031 -1.453125 18.625 -0.734375 C 17.050781 -0.015625 15.289062 0.34375 13.34375 0.34375 C 10.988281 0.34375 8.890625 -0.15625 7.046875 -1.15625 C 5.210938 -2.164062 3.78125 -3.601562 2.75 -5.46875 C 1.71875 -7.332031 1.203125 -9.507812 1.203125 -12 C 1.203125 -14.5 1.710938 -16.679688 2.734375 -18.546875 C 3.753906 -20.410156 5.179688 -21.84375 7.015625 -22.84375 C 8.847656 -23.851562 10.957031 -24.359375 13.34375 -24.359375 C 15.664062 -24.359375 17.726562 -23.867188 19.53125 -22.890625 C 21.34375 -21.910156 22.753906 -20.515625 23.765625 -18.703125 C 24.785156 -16.898438 25.296875 -14.796875 25.296875 -12.390625 Z M 17.765625 -14.328125 C 17.765625 -15.585938 17.332031 -16.585938 16.46875 -17.328125 C 15.613281 -18.078125 14.539062 -18.453125 13.25 -18.453125 C 12.019531 -18.453125 10.976562 -18.09375 10.125 -17.375 C 9.28125 -16.664062 8.757812 -15.648438 8.5625 -14.328125 Z M 17.765625 -14.328125 "/></g></g></g><g fill="#ffffff" fill-opacity="1"><g transform="translate(63.432878, 210.992988)"><g><path d="M 1.421875 -15.140625 C 1.421875 -18.128906 2.066406 -20.789062 3.359375 -23.125 C 4.648438 -25.46875 6.445312 -27.289062 8.75 -28.59375 C 11.0625 -29.894531 13.679688 -30.546875 16.609375 -30.546875 C 20.191406 -30.546875 23.257812 -29.597656 25.8125 -27.703125 C 28.375 -25.816406 30.082031 -23.238281 30.9375 -19.96875 L 22.84375 -19.96875 C 22.25 -21.226562 21.394531 -22.1875 20.28125 -22.84375 C 19.175781 -23.507812 17.925781 -23.84375 16.53125 -23.84375 C 14.257812 -23.84375 12.421875 -23.050781 11.015625 -21.46875 C 9.609375 -19.894531 8.90625 -17.785156 8.90625 -15.140625 C 8.90625 -12.503906 9.609375 -10.394531 11.015625 -8.8125 C 12.421875 -7.238281 14.257812 -6.453125 16.53125 -6.453125 C 17.925781 -6.453125 19.175781 -6.78125 20.28125 -7.4375 C 21.394531 -8.101562 22.25 -9.066406 22.84375 -10.328125 L 30.9375 -10.328125 C 30.082031 -7.054688 28.375 -4.476562 25.8125 -2.59375 C 23.257812 -0.71875 20.191406 0.21875 16.609375 0.21875 C 13.679688 0.21875 11.0625 -0.429688 8.75 -1.734375 C 6.445312 -3.046875 4.648438 -4.863281 3.359375 -7.1875 C 2.066406 -9.507812 1.421875 -12.160156 1.421875 -15.140625 Z M 1.421875 -15.140625 "/></g></g></g><g fill="#ffffff" fill-opacity="1"><g transform="translate(96.213802, 210.992988)"><g><path d="M 13.59375 0.34375 C 11.238281 0.34375 9.125 -0.15625 7.25 -1.15625 C 5.375 -2.164062 3.894531 -3.601562 2.8125 -5.46875 C 1.738281 -7.332031 1.203125 -9.507812 1.203125 -12 C 1.203125 -14.46875 1.742188 -16.640625 2.828125 -18.515625 C 3.921875 -20.398438 5.414062 -21.84375 7.3125 -22.84375 C 9.207031 -23.851562 11.332031 -24.359375 13.6875 -24.359375 C 16.039062 -24.359375 18.160156 -23.851562 20.046875 -22.84375 C 21.941406 -21.84375 23.429688 -20.398438 24.515625 -18.515625 C 25.609375 -16.640625 26.15625 -14.46875 26.15625 -12 C 26.15625 -9.539062 25.601562 -7.367188 24.5 -5.484375 C 23.394531 -3.609375 21.890625 -2.164062 19.984375 -1.15625 C 18.078125 -0.15625 15.945312 0.34375 13.59375 0.34375 Z M 13.59375 -6.03125 C 15 -6.03125 16.195312 -6.546875 17.1875 -7.578125 C 18.175781 -8.609375 18.671875 -10.082031 18.671875 -12 C 18.671875 -13.925781 18.191406 -15.40625 17.234375 -16.4375 C 16.273438 -17.46875 15.09375 -17.984375 13.6875 -17.984375 C 12.25 -17.984375 11.054688 -17.472656 10.109375 -16.453125 C 9.160156 -15.441406 8.6875 -13.957031 8.6875 -12 C 8.6875 -10.082031 9.148438 -8.609375 10.078125 -7.578125 C 11.015625 -6.546875 12.1875 -6.03125 13.59375 -6.03125 Z M 13.59375 -6.03125 "/></g></g></g><g fill="#ffffff" fill-opacity="1"><g transform="translate(123.617285, 210.992988)"><g><path d="M 33.3125 -24.265625 C 36.289062 -24.265625 38.660156 -23.359375 40.421875 -21.546875 C 42.191406 -19.742188 43.078125 -17.238281 43.078125 -14.03125 L 43.078125 0 L 35.765625 0 L 35.765625 -13.03125 C 35.765625 -14.582031 35.351562 -15.78125 34.53125 -16.625 C 33.71875 -17.476562 32.59375 -17.90625 31.15625 -17.90625 C 29.71875 -17.90625 28.585938 -17.476562 27.765625 -16.625 C 26.953125 -15.78125 26.546875 -14.582031 26.546875 -13.03125 L 26.546875 0 L 19.234375 0 L 19.234375 -13.03125 C 19.234375 -14.582031 18.820312 -15.78125 18 -16.625 C 17.1875 -17.476562 16.0625 -17.90625 14.625 -17.90625 C 13.195312 -17.90625 12.070312 -17.476562 11.25 -16.625 C 10.4375 -15.78125 10.03125 -14.582031 10.03125 -13.03125 L 10.03125 0 L 2.671875 0 L 2.671875 -24.015625 L 10.03125 -24.015625 L 10.03125 -21 C 10.769531 -22 11.742188 -22.789062 12.953125 -23.375 C 14.160156 -23.96875 15.523438 -24.265625 17.046875 -24.265625 C 18.847656 -24.265625 20.457031 -23.878906 21.875 -23.109375 C 23.300781 -22.335938 24.414062 -21.234375 25.21875 -19.796875 C 26.050781 -21.117188 27.179688 -22.191406 28.609375 -23.015625 C 30.046875 -23.847656 31.613281 -24.265625 33.3125 -24.265625 Z M 33.3125 -24.265625 "/></g></g></g><g fill="#ffffff" fill-opacity="1"><g transform="translate(169.175034, 210.992988)"><g><path d="M 33.3125 -24.265625 C 36.289062 -24.265625 38.660156 -23.359375 40.421875 -21.546875 C 42.191406 -19.742188 43.078125 -17.238281 43.078125 -14.03125 L 43.078125 0 L 35.765625 0 L 35.765625 -13.03125 C 35.765625 -14.582031 35.351562 -15.78125 34.53125 -16.625 C 33.71875 -17.476562 32.59375 -17.90625 31.15625 -17.90625 C 29.71875 -17.90625 28.585938 -17.476562 27.765625 -16.625 C 26.953125 -15.78125 26.546875 -14.582031 26.546875 -13.03125 L 26.546875 0 L 19.234375 0 L 19.234375 -13.03125 C 19.234375 -14.582031 18.820312 -15.78125 18 -16.625 C 17.1875 -17.476562 16.0625 -17.90625 14.625 -17.90625 C 13.195312 -17.90625 12.070312 -17.476562 11.25 -16.625 C 10.4375 -15.78125 10.03125 -14.582031 10.03125 -13.03125 L 10.03125 0 L 2.671875 0 L 2.671875 -24.015625 L 10.03125 -24.015625 L 10.03125 -21 C 10.769531 -22 11.742188 -22.789062 12.953125 -23.375 C 14.160156 -23.96875 15.523438 -24.265625 17.046875 -24.265625 C 18.847656 -24.265625 20.457031 -23.878906 21.875 -23.109375 C 23.300781 -22.335938 24.414062 -21.234375 25.21875 -19.796875 C 26.050781 -21.117188 27.179688 -22.191406 28.609375 -23.015625 C 30.046875 -23.847656 31.613281 -24.265625 33.3125 -24.265625 Z M 33.3125 -24.265625 "/></g></g></g><g fill="#ffffff" fill-opacity="1"><g transform="translate(214.732783, 210.992988)"><g><path d="M 25.296875 -12.390625 C 25.296875 -11.703125 25.253906 -10.984375 25.171875 -10.234375 L 8.515625 -10.234375 C 8.628906 -8.742188 9.109375 -7.601562 9.953125 -6.8125 C 10.804688 -6.03125 11.847656 -5.640625 13.078125 -5.640625 C 14.910156 -5.640625 16.1875 -6.410156 16.90625 -7.953125 L 24.75 -7.953125 C 24.34375 -6.378906 23.613281 -4.960938 22.5625 -3.703125 C 21.519531 -2.441406 20.207031 -1.453125 18.625 -0.734375 C 17.050781 -0.015625 15.289062 0.34375 13.34375 0.34375 C 10.988281 0.34375 8.890625 -0.15625 7.046875 -1.15625 C 5.210938 -2.164062 3.78125 -3.601562 2.75 -5.46875 C 1.71875 -7.332031 1.203125 -9.507812 1.203125 -12 C 1.203125 -14.5 1.710938 -16.679688 2.734375 -18.546875 C 3.753906 -20.410156 5.179688 -21.84375 7.015625 -22.84375 C 8.847656 -23.851562 10.957031 -24.359375 13.34375 -24.359375 C 15.664062 -24.359375 17.726562 -23.867188 19.53125 -22.890625 C 21.34375 -21.910156 22.753906 -20.515625 23.765625 -18.703125 C 24.785156 -16.898438 25.296875 -14.796875 25.296875 -12.390625 Z M 17.765625 -14.328125 C 17.765625 -15.585938 17.332031 -16.585938 16.46875 -17.328125 C 15.613281 -18.078125 14.539062 -18.453125 13.25 -18.453125 C 12.019531 -18.453125 10.976562 -18.09375 10.125 -17.375 C 9.28125 -16.664062 8.757812 -15.648438 8.5625 -14.328125 Z M 17.765625 -14.328125 "/></g></g></g><g fill="#ffffff" fill-opacity="1"><g transform="translate(241.232847, 210.992988)"><g><path d="M 10.03125 -20.015625 C 10.882812 -21.328125 11.957031 -22.363281 13.25 -23.125 C 14.539062 -23.882812 15.976562 -24.265625 17.5625 -24.265625 L 17.5625 -16.484375 L 15.53125 -16.484375 C 13.695312 -16.484375 12.320312 -16.085938 11.40625 -15.296875 C 10.488281 -14.503906 10.03125 -13.117188 10.03125 -11.140625 L 10.03125 0 L 2.671875 0 L 2.671875 -24.015625 L 10.03125 -24.015625 Z M 10.03125 -20.015625 "/></g></g></g><g fill="#ffffff" fill-opacity="1"><g transform="translate(259.645222, 210.992988)"><g><path d="M 1.203125 -12 C 1.203125 -14.5 1.710938 -16.679688 2.734375 -18.546875 C 3.753906 -20.410156 5.171875 -21.84375 6.984375 -22.84375 C 8.804688 -23.851562 10.894531 -24.359375 13.25 -24.359375 C 16.257812 -24.359375 18.773438 -23.566406 20.796875 -21.984375 C 22.828125 -20.410156 24.15625 -18.1875 24.78125 -15.3125 L 16.953125 -15.3125 C 16.296875 -17.15625 15.019531 -18.078125 13.125 -18.078125 C 11.78125 -18.078125 10.703125 -17.550781 9.890625 -16.5 C 9.085938 -15.457031 8.6875 -13.957031 8.6875 -12 C 8.6875 -10.050781 9.085938 -8.550781 9.890625 -7.5 C 10.703125 -6.457031 11.78125 -5.9375 13.125 -5.9375 C 15.019531 -5.9375 16.296875 -6.851562 16.953125 -8.6875 L 24.78125 -8.6875 C 24.15625 -5.875 22.820312 -3.664062 20.78125 -2.0625 C 18.75 -0.457031 16.238281 0.34375 13.25 0.34375 C 10.894531 0.34375 8.804688 -0.15625 6.984375 -1.15625 C 5.171875 -2.164062 3.753906 -3.601562 2.734375 -5.46875 C 1.710938 -7.332031 1.203125 -9.507812 1.203125 -12 Z M 1.203125 -12 "/></g></g></g><g fill="#ffffff" fill-opacity="1"><g transform="translate(285.672084, 210.992988)"><g><path d="M 25.296875 -12.390625 C 25.296875 -11.703125 25.253906 -10.984375 25.171875 -10.234375 L 8.515625 -10.234375 C 8.628906 -8.742188 9.109375 -7.601562 9.953125 -6.8125 C 10.804688 -6.03125 11.847656 -5.640625 13.078125 -5.640625 C 14.910156 -5.640625 16.1875 -6.410156 16.90625 -7.953125 L 24.75 -7.953125 C 24.34375 -6.378906 23.613281 -4.960938 22.5625 -3.703125 C 21.519531 -2.441406 20.207031 -1.453125 18.625 -0.734375 C 17.050781 -0.015625 15.289062 0.34375 13.34375 0.34375 C 10.988281 0.34375 8.890625 -0.15625 7.046875 -1.15625 C 5.210938 -2.164062 3.78125 -3.601562 2.75 -5.46875 C 1.71875 -7.332031 1.203125 -9.507812 1.203125 -12 C 1.203125 -14.5 1.710938 -16.679688 2.734375 -18.546875 C 3.753906 -20.410156 5.179688 -21.84375 7.015625 -22.84375 C 8.847656 -23.851562 10.957031 -24.359375 13.34375 -24.359375 C 15.664062 -24.359375 17.726562 -23.867188 19.53125 -22.890625 C 21.34375 -21.910156 22.753906 -20.515625 23.765625 -18.703125 C 24.785156 -16.898438 25.296875 -14.796875 25.296875 -12.390625 Z M 17.765625 -14.328125 C 17.765625 -15.585938 17.332031 -16.585938 16.46875 -17.328125 C 15.613281 -18.078125 14.539062 -18.453125 13.25 -18.453125 C 12.019531 -18.453125 10.976562 -18.09375 10.125 -17.375 C 9.28125 -16.664062 8.757812 -15.648438 8.5625 -14.328125 Z M 17.765625 -14.328125 "/></g></g></g><g fill="#ffffff" fill-opacity="1"><g transform="translate(312.172137, 210.992988)"><g/></g></g><g fill="#ffffff" fill-opacity="1"><g transform="translate(321.292299, 210.992988)"><g><path d="M 18.078125 0 L 11.796875 -11.40625 L 10.03125 -11.40625 L 10.03125 0 L 2.671875 0 L 2.671875 -30.203125 L 15.015625 -30.203125 C 17.398438 -30.203125 19.429688 -29.785156 21.109375 -28.953125 C 22.785156 -28.128906 24.039062 -26.988281 24.875 -25.53125 C 25.707031 -24.082031 26.125 -22.472656 26.125 -20.703125 C 26.125 -18.691406 25.554688 -16.894531 24.421875 -15.3125 C 23.285156 -13.738281 21.613281 -12.625 19.40625 -11.96875 L 26.375 0 Z M 10.03125 -16.609375 L 14.59375 -16.609375 C 15.9375 -16.609375 16.941406 -16.9375 17.609375 -17.59375 C 18.285156 -18.257812 18.625 -19.191406 18.625 -20.390625 C 18.625 -21.546875 18.285156 -22.453125 17.609375 -23.109375 C 16.941406 -23.765625 15.9375 -24.09375 14.59375 -24.09375 L 10.03125 -24.09375 Z M 10.03125 -16.609375 "/></g></g></g><g fill="#ffffff" fill-opacity="1"><g transform="translate(349.34108, 210.992988)"><g><path d="M 25.296875 -12.390625 C 25.296875 -11.703125 25.253906 -10.984375 25.171875 -10.234375 L 8.515625 -10.234375 C 8.628906 -8.742188 9.109375 -7.601562 9.953125 -6.8125 C 10.804688 -6.03125 11.847656 -5.640625 13.078125 -5.640625 C 14.910156 -5.640625 16.1875 -6.410156 16.90625 -7.953125 L 24.75 -7.953125 C 24.34375 -6.378906 23.613281 -4.960938 22.5625 -3.703125 C 21.519531 -2.441406 20.207031 -1.453125 18.625 -0.734375 C 17.050781 -0.015625 15.289062 0.34375 13.34375 0.34375 C 10.988281 0.34375 8.890625 -0.15625 7.046875 -1.15625 C 5.210938 -2.164062 3.78125 -3.601562 2.75 -5.46875 C 1.71875 -7.332031 1.203125 -9.507812 1.203125 -12 C 1.203125 -14.5 1.710938 -16.679688 2.734375 -18.546875 C 3.753906 -20.410156 5.179688 -21.84375 7.015625 -22.84375 C 8.847656 -23.851562 10.957031 -24.359375 13.34375 -24.359375 C 15.664062 -24.359375 17.726562 -23.867188 19.53125 -22.890625 C 21.34375 -21.910156 22.753906 -20.515625 23.765625 -18.703125 C 24.785156 -16.898438 25.296875 -14.796875 25.296875 -12.390625 Z M 17.765625 -14.328125 C 17.765625 -15.585938 17.332031 -16.585938 16.46875 -17.328125 C 15.613281 -18.078125 14.539062 -18.453125 13.25 -18.453125 C 12.019531 -18.453125 10.976562 -18.09375 10.125 -17.375 C 9.28125 -16.664062 8.757812 -15.648438 8.5625 -14.328125 Z M 17.765625 -14.328125 "/></g></g></g><g fill="#ffffff" fill-opacity="1"><g transform="translate(375.841133, 210.992988)"><g><path d="M 16.046875 -6.234375 L 16.046875 0 L 12.3125 0 C 9.644531 0 7.5625 -0.648438 6.0625 -1.953125 C 4.570312 -3.265625 3.828125 -5.394531 3.828125 -8.34375 L 3.828125 -17.90625 L 0.90625 -17.90625 L 0.90625 -24.015625 L 3.828125 -24.015625 L 3.828125 -29.859375 L 11.1875 -29.859375 L 11.1875 -24.015625 L 16 -24.015625 L 16 -17.90625 L 11.1875 -17.90625 L 11.1875 -8.265625 C 11.1875 -7.546875 11.359375 -7.023438 11.703125 -6.703125 C 12.046875 -6.390625 12.617188 -6.234375 13.421875 -6.234375 Z M 16.046875 -6.234375 "/></g></g></g><g fill="#ffffff" fill-opacity="1"><g transform="translate(393.307082, 210.992988)"><g><path d="M 25.296875 -12.390625 C 25.296875 -11.703125 25.253906 -10.984375 25.171875 -10.234375 L 8.515625 -10.234375 C 8.628906 -8.742188 9.109375 -7.601562 9.953125 -6.8125 C 10.804688 -6.03125 11.847656 -5.640625 13.078125 -5.640625 C 14.910156 -5.640625 16.1875 -6.410156 16.90625 -7.953125 L 24.75 -7.953125 C 24.34375 -6.378906 23.613281 -4.960938 22.5625 -3.703125 C 21.519531 -2.441406 20.207031 -1.453125 18.625 -0.734375 C 17.050781 -0.015625 15.289062 0.34375 13.34375 0.34375 C 10.988281 0.34375 8.890625 -0.15625 7.046875 -1.15625 C 5.210938 -2.164062 3.78125 -3.601562 2.75 -5.46875 C 1.71875 -7.332031 1.203125 -9.507812 1.203125 -12 C 1.203125 -14.5 1.710938 -16.679688 2.734375 -18.546875 C 3.753906 -20.410156 5.179688 -21.84375 7.015625 -22.84375 C 8.847656 -23.851562 10.957031 -24.359375 13.34375 -24.359375 C 15.664062 -24.359375 17.726562 -23.867188 19.53125 -22.890625 C 21.34375 -21.910156 22.753906 -20.515625 23.765625 -18.703125 C 24.785156 -16.898438 25.296875 -14.796875 25.296875 -12.390625 Z M 17.765625 -14.328125 C 17.765625 -15.585938 17.332031 -16.585938 16.46875 -17.328125 C 15.613281 -18.078125 14.539062 -18.453125 13.25 -18.453125 C 12.019531 -18.453125 10.976562 -18.09375 10.125 -17.375 C 9.28125 -16.664062 8.757812 -15.648438 8.5625 -14.328125 Z M 17.765625 -14.328125 "/></g></g></g><g fill="#ffffff" fill-opacity="1"><g transform="translate(419.807157, 210.992988)"><g><path d="M 17.296875 -24.265625 C 20.109375 -24.265625 22.351562 -23.351562 24.03125 -21.53125 C 25.707031 -19.707031 26.546875 -17.207031 26.546875 -14.03125 L 26.546875 0 L 19.234375 0 L 19.234375 -13.03125 C 19.234375 -14.644531 18.816406 -15.894531 17.984375 -16.78125 C 17.148438 -17.664062 16.03125 -18.109375 14.625 -18.109375 C 13.21875 -18.109375 12.097656 -17.664062 11.265625 -16.78125 C 10.441406 -15.894531 10.03125 -14.644531 10.03125 -13.03125 L 10.03125 0 L 2.671875 0 L 2.671875 -24.015625 L 10.03125 -24.015625 L 10.03125 -20.828125 C 10.769531 -21.890625 11.769531 -22.726562 13.03125 -23.34375 C 14.300781 -23.957031 15.722656 -24.265625 17.296875 -24.265625 Z M 17.296875 -24.265625 "/></g></g></g><g fill="#ffffff" fill-opacity="1"><g transform="translate(448.802364, 210.992988)"><g><path d="M 16.046875 -6.234375 L 16.046875 0 L 12.3125 0 C 9.644531 0 7.5625 -0.648438 6.0625 -1.953125 C 4.570312 -3.265625 3.828125 -5.394531 3.828125 -8.34375 L 3.828125 -17.90625 L 0.90625 -17.90625 L 0.90625 -24.015625 L 3.828125 -24.015625 L 3.828125 -29.859375 L 11.1875 -29.859375 L 11.1875 -24.015625 L 16 -24.015625 L 16 -17.90625 L 11.1875 -17.90625 L 11.1875 -8.265625 C 11.1875 -7.546875 11.359375 -7.023438 11.703125 -6.703125 C 12.046875 -6.390625 12.617188 -6.234375 13.421875 -6.234375 Z M 16.046875 -6.234375 "/></g></g></g><g fill="#ffffff" fill-opacity="1"><g transform="translate(466.26829, 210.992988)"><g><path d="M 6.375 -26.5 C 5.082031 -26.5 4.023438 -26.878906 3.203125 -27.640625 C 2.390625 -28.398438 1.984375 -29.34375 1.984375 -30.46875 C 1.984375 -31.613281 2.390625 -32.566406 3.203125 -33.328125 C 4.023438 -34.085938 5.082031 -34.46875 6.375 -34.46875 C 7.632812 -34.46875 8.671875 -34.085938 9.484375 -33.328125 C 10.304688 -32.566406 10.71875 -31.613281 10.71875 -30.46875 C 10.71875 -29.34375 10.304688 -28.398438 9.484375 -27.640625 C 8.671875 -26.878906 7.632812 -26.5 6.375 -26.5 Z M 10.03125 -24.015625 L 10.03125 0 L 2.671875 0 L 2.671875 -24.015625 Z M 10.03125 -24.015625 "/></g></g></g><g fill="#ffffff" fill-opacity="1"><g transform="translate(478.959101, 210.992988)"><g><path d="M 13.59375 0.34375 C 11.238281 0.34375 9.125 -0.15625 7.25 -1.15625 C 5.375 -2.164062 3.894531 -3.601562 2.8125 -5.46875 C 1.738281 -7.332031 1.203125 -9.507812 1.203125 -12 C 1.203125 -14.46875 1.742188 -16.640625 2.828125 -18.515625 C 3.921875 -20.398438 5.414062 -21.84375 7.3125 -22.84375 C 9.207031 -23.851562 11.332031 -24.359375 13.6875 -24.359375 C 16.039062 -24.359375 18.160156 -23.851562 20.046875 -22.84375 C 21.941406 -21.84375 23.429688 -20.398438 24.515625 -18.515625 C 25.609375 -16.640625 26.15625 -14.46875 26.15625 -12 C 26.15625 -9.539062 25.601562 -7.367188 24.5 -5.484375 C 23.394531 -3.609375 21.890625 -2.164062 19.984375 -1.15625 C 18.078125 -0.15625 15.945312 0.34375 13.59375 0.34375 Z M 13.59375 -6.03125 C 15 -6.03125 16.195312 -6.546875 17.1875 -7.578125 C 18.175781 -8.609375 18.671875 -10.082031 18.671875 -12 C 18.671875 -13.925781 18.191406 -15.40625 17.234375 -16.4375 C 16.273438 -17.46875 15.09375 -17.984375 13.6875 -17.984375 C 12.25 -17.984375 11.054688 -17.472656 10.109375 -16.453125 C 9.160156 -15.441406 8.6875 -13.957031 8.6875 -12 C 8.6875 -10.082031 9.148438 -8.609375 10.078125 -7.578125 C 11.015625 -6.546875 12.1875 -6.03125 13.59375 -6.03125 Z M 13.59375 -6.03125 "/></g></g></g><g fill="#ffffff" fill-opacity="1"><g transform="translate(506.362573, 210.992988)"><g><path d="M 17.296875 -24.265625 C 20.109375 -24.265625 22.351562 -23.351562 24.03125 -21.53125 C 25.707031 -19.707031 26.546875 -17.207031 26.546875 -14.03125 L 26.546875 0 L 19.234375 0 L 19.234375 -13.03125 C 19.234375 -14.644531 18.816406 -15.894531 17.984375 -16.78125 C 17.148438 -17.664062 16.03125 -18.109375 14.625 -18.109375 C 13.21875 -18.109375 12.097656 -17.664062 11.265625 -16.78125 C 10.441406 -15.894531 10.03125 -14.644531 10.03125 -13.03125 L 10.03125 0 L 2.671875 0 L 2.671875 -24.015625 L 10.03125 -24.015625 L 10.03125 -20.828125 C 10.769531 -21.890625 11.769531 -22.726562 13.03125 -23.34375 C 14.300781 -23.957031 15.722656 -24.265625 17.296875 -24.265625 Z M 17.296875 -24.265625 "/></g></g></g><g fill="#ffffff" fill-opacity="1"><g transform="translate(535.35778, 210.992988)"><g/></g></g><g fill="#ffffff" fill-opacity="1"><g transform="translate(544.477897, 210.992988)"><g><path d="M 36.875 -30.203125 L 36.875 0 L 29.515625 0 L 29.515625 -18.109375 L 22.765625 0 L 16.828125 0 L 10.03125 -18.15625 L 10.03125 0 L 2.671875 0 L 2.671875 -30.203125 L 11.359375 -30.203125 L 19.84375 -9.296875 L 28.234375 -30.203125 Z M 36.875 -30.203125 "/></g></g></g><g fill="#ffffff" fill-opacity="1"><g transform="translate(583.9699, 210.992988)"><g><path d="M 1.203125 -12.046875 C 1.203125 -14.515625 1.664062 -16.679688 2.59375 -18.546875 C 3.53125 -20.410156 4.800781 -21.84375 6.40625 -22.84375 C 8.019531 -23.851562 9.816406 -24.359375 11.796875 -24.359375 C 13.484375 -24.359375 14.960938 -24.015625 16.234375 -23.328125 C 17.515625 -22.640625 18.5 -21.734375 19.1875 -20.609375 L 19.1875 -24.015625 L 26.546875 -24.015625 L 26.546875 0 L 19.1875 0 L 19.1875 -3.40625 C 18.46875 -2.28125 17.46875 -1.375 16.1875 -0.6875 C 14.914062 0 13.4375 0.34375 11.75 0.34375 C 9.800781 0.34375 8.019531 -0.164062 6.40625 -1.1875 C 4.800781 -2.207031 3.53125 -3.65625 2.59375 -5.53125 C 1.664062 -7.40625 1.203125 -9.578125 1.203125 -12.046875 Z M 19.1875 -12 C 19.1875 -13.84375 18.675781 -15.289062 17.65625 -16.34375 C 16.644531 -17.40625 15.40625 -17.9375 13.9375 -17.9375 C 12.476562 -17.9375 11.238281 -17.410156 10.21875 -16.359375 C 9.195312 -15.316406 8.6875 -13.878906 8.6875 -12.046875 C 8.6875 -10.210938 9.195312 -8.753906 10.21875 -7.671875 C 11.238281 -6.597656 12.476562 -6.0625 13.9375 -6.0625 C 15.40625 -6.0625 16.644531 -6.59375 17.65625 -7.65625 C 18.675781 -8.71875 19.1875 -10.164062 19.1875 -12 Z M 19.1875 -12 "/></g></g></g><g fill="#ffffff" fill-opacity="1"><g transform="translate(613.18021, 210.992988)"><g><path d="M 10.03125 -20.015625 C 10.882812 -21.328125 11.957031 -22.363281 13.25 -23.125 C 14.539062 -23.882812 15.976562 -24.265625 17.5625 -24.265625 L 17.5625 -16.484375 L 15.53125 -16.484375 C 13.695312 -16.484375 12.320312 -16.085938 11.40625 -15.296875 C 10.488281 -14.503906 10.03125 -13.117188 10.03125 -11.140625 L 10.03125 0 L 2.671875 0 L 2.671875 -24.015625 L 10.03125 -24.015625 Z M 10.03125 -20.015625 "/></g></g></g><g fill="#ffffff" fill-opacity="1"><g transform="translate(631.592609, 210.992988)"><g><path d="M 17.34375 0 L 10.03125 -10.0625 L 10.03125 0 L 2.671875 0 L 2.671875 -31.84375 L 10.03125 -31.84375 L 10.03125 -14.25 L 17.296875 -24.015625 L 26.375 -24.015625 L 16.390625 -11.96875 L 26.46875 0 Z M 17.34375 0 "/></g></g></g><g fill="#ffffff" fill-opacity="1"><g transform="translate(658.178698, 210.992988)"><g><path d="M 25.296875 -12.390625 C 25.296875 -11.703125 25.253906 -10.984375 25.171875 -10.234375 L 8.515625 -10.234375 C 8.628906 -8.742188 9.109375 -7.601562 9.953125 -6.8125 C 10.804688 -6.03125 11.847656 -5.640625 13.078125 -5.640625 C 14.910156 -5.640625 16.1875 -6.410156 16.90625 -7.953125 L 24.75 -7.953125 C 24.34375 -6.378906 23.613281 -4.960938 22.5625 -3.703125 C 21.519531 -2.441406 20.207031 -1.453125 18.625 -0.734375 C 17.050781 -0.015625 15.289062 0.34375 13.34375 0.34375 C 10.988281 0.34375 8.890625 -0.15625 7.046875 -1.15625 C 5.210938 -2.164062 3.78125 -3.601562 2.75 -5.46875 C 1.71875 -7.332031 1.203125 -9.507812 1.203125 -12 C 1.203125 -14.5 1.710938 -16.679688 2.734375 -18.546875 C 3.753906 -20.410156 5.179688 -21.84375 7.015625 -22.84375 C 8.847656 -23.851562 10.957031 -24.359375 13.34375 -24.359375 C 15.664062 -24.359375 17.726562 -23.867188 19.53125 -22.890625 C 21.34375 -21.910156 22.753906 -20.515625 23.765625 -18.703125 C 24.785156 -16.898438 25.296875 -14.796875 25.296875 -12.390625 Z M 17.765625 -14.328125 C 17.765625 -15.585938 17.332031 -16.585938 16.46875 -17.328125 C 15.613281 -18.078125 14.539062 -18.453125 13.25 -18.453125 C 12.019531 -18.453125 10.976562 -18.09375 10.125 -17.375 C 9.28125 -16.664062 8.757812 -15.648438 8.5625 -14.328125 Z M 17.765625 -14.328125 "/></g></g></g><g fill="#ffffff" fill-opacity="1"><g transform="translate(684.678773, 210.992988)"><g><path d="M 16.046875 -6.234375 L 16.046875 0 L 12.3125 0 C 9.644531 0 7.5625 -0.648438 6.0625 -1.953125 C 4.570312 -3.265625 3.828125 -5.394531 3.828125 -8.34375 L 3.828125 -17.90625 L 0.90625 -17.90625 L 0.90625 -24.015625 L 3.828125 -24.015625 L 3.828125 -29.859375 L 11.1875 -29.859375 L 11.1875 -24.015625 L 16 -24.015625 L 16 -17.90625 L 11.1875 -17.90625 L 11.1875 -8.265625 C 11.1875 -7.546875 11.359375 -7.023438 11.703125 -6.703125 C 12.046875 -6.390625 12.617188 -6.234375 13.421875 -6.234375 Z M 16.046875 -6.234375 "/></g></g></g><g fill="#ffffff" fill-opacity="1"><g transform="translate(702.144699, 210.992988)"><g><path d="M 6.375 -26.5 C 5.082031 -26.5 4.023438 -26.878906 3.203125 -27.640625 C 2.390625 -28.398438 1.984375 -29.34375 1.984375 -30.46875 C 1.984375 -31.613281 2.390625 -32.566406 3.203125 -33.328125 C 4.023438 -34.085938 5.082031 -34.46875 6.375 -34.46875 C 7.632812 -34.46875 8.671875 -34.085938 9.484375 -33.328125 C 10.304688 -32.566406 10.71875 -31.613281 10.71875 -30.46875 C 10.71875 -29.34375 10.304688 -28.398438 9.484375 -27.640625 C 8.671875 -26.878906 7.632812 -26.5 6.375 -26.5 Z M 10.03125 -24.015625 L 10.03125 0 L 2.671875 0 L 2.671875 -24.015625 Z M 10.03125 -24.015625 "/></g></g></g><g fill="#ffffff" fill-opacity="1"><g transform="translate(714.835465, 210.992988)"><g><path d="M 17.296875 -24.265625 C 20.109375 -24.265625 22.351562 -23.351562 24.03125 -21.53125 C 25.707031 -19.707031 26.546875 -17.207031 26.546875 -14.03125 L 26.546875 0 L 19.234375 0 L 19.234375 -13.03125 C 19.234375 -14.644531 18.816406 -15.894531 17.984375 -16.78125 C 17.148438 -17.664062 16.03125 -18.109375 14.625 -18.109375 C 13.21875 -18.109375 12.097656 -17.664062 11.265625 -16.78125 C 10.441406 -15.894531 10.03125 -14.644531 10.03125 -13.03125 L 10.03125 0 L 2.671875 0 L 2.671875 -24.015625 L 10.03125 -24.015625 L 10.03125 -20.828125 C 10.769531 -21.890625 11.769531 -22.726562 13.03125 -23.34375 C 14.300781 -23.957031 15.722656 -24.265625 17.296875 -24.265625 Z M 17.296875 -24.265625 "/></g></g></g><g fill="#ffffff" fill-opacity="1"><g transform="translate(743.830672, 210.992988)"><g><path d="M 11.796875 -24.359375 C 13.484375 -24.359375 14.960938 -24.015625 16.234375 -23.328125 C 17.515625 -22.640625 18.5 -21.734375 19.1875 -20.609375 L 19.1875 -24.015625 L 26.546875 -24.015625 L 26.546875 -0.046875 C 26.546875 2.160156 26.109375 4.160156 25.234375 5.953125 C 24.359375 7.753906 23.023438 9.179688 21.234375 10.234375 C 19.441406 11.296875 17.210938 11.828125 14.546875 11.828125 C 10.984375 11.828125 8.097656 10.988281 5.890625 9.3125 C 3.679688 7.632812 2.421875 5.363281 2.109375 2.5 L 9.375 2.5 C 9.601562 3.414062 10.148438 4.140625 11.015625 4.671875 C 11.878906 5.203125 12.941406 5.46875 14.203125 5.46875 C 15.722656 5.46875 16.929688 5.03125 17.828125 4.15625 C 18.734375 3.28125 19.1875 1.878906 19.1875 -0.046875 L 19.1875 -3.4375 C 18.46875 -2.320312 17.476562 -1.410156 16.21875 -0.703125 C 14.957031 -0.00390625 13.484375 0.34375 11.796875 0.34375 C 9.816406 0.34375 8.019531 -0.164062 6.40625 -1.1875 C 4.800781 -2.207031 3.53125 -3.65625 2.59375 -5.53125 C 1.664062 -7.40625 1.203125 -9.578125 1.203125 -12.046875 C 1.203125 -14.515625 1.664062 -16.679688 2.59375 -18.546875 C 3.53125 -20.410156 4.800781 -21.84375 6.40625 -22.84375 C 8.019531 -23.851562 9.816406 -24.359375 11.796875 -24.359375 Z M 19.1875 -12 C 19.1875 -13.84375 18.675781 -15.289062 17.65625 -16.34375 C 16.644531 -17.40625 15.40625 -17.9375 13.9375 -17.9375 C 12.476562 -17.9375 11.238281 -17.410156 10.21875 -16.359375 C 9.195312 -15.316406 8.6875 -13.878906 8.6875 -12.046875 C 8.6875 -10.210938 9.195312 -8.753906 10.21875 -7.671875 C 11.238281 -6.597656 12.476562 -6.0625 13.9375 -6.0625 C 15.40625 -6.0625 16.644531 -6.59375 17.65625 -7.65625 C 18.675781 -8.71875 19.1875 -10.164062 19.1875 -12 Z M 19.1875 -12 "/></g></g></g></svg>