<svg xmlns="http://www.w3.org/2000/svg" xmlns:xlink="http://www.w3.org/1999/xlink" width="1080" zoomAndPan="magnify" viewBox="0 0 810 242.999999" height="324" preserveAspectRatio="xMidYMid meet" version="1.0"><defs><filter x="0%" y="0%" width="100%" height="100%" id="4f48cbe7a4"><feColorMatrix values="0 0 0 0 1 0 0 0 0 1 0 0 0 0 1 0 0 0 1 0" color-interpolation-filters="sRGB"/></filter><g/><clipPath id="769e8fb415"><path d="M 0 0 L 810 0 L 810 243 L 0 243 Z M 0 0 " clip-rule="nonzero"/></clipPath><linearGradient x1="-0.0420925" gradientTransform="matrix(0.749953, 0, 0, 0.749669, 0.031569, -13.331269)" y1="120.5" x2="1080.026064" gradientUnits="userSpaceOnUse" y2="120.5" id="7b56cace58"><stop stop-opacity="1" stop-color="rgb(100%, 41.958618%, 29.019165%)" offset="0"/><stop stop-opacity="1" stop-color="rgb(100%, 41.958618%, 29.019165%)" offset="0.03125"/><stop stop-opacity="1" stop-color="rgb(100%, 41.958618%, 29.019165%)" offset="0.046875"/><stop stop-opacity="1" stop-color="rgb(99.980164%, 41.958618%, 29.066467%)" offset="0.0546875"/><stop stop-opacity="1" stop-color="rgb(99.839783%, 41.963196%, 29.403687%)" offset="0.0585938"/><stop stop-opacity="1" stop-color="rgb(99.720764%, 41.967773%, 29.693604%)" offset="0.0625"/><stop stop-opacity="1" stop-color="rgb(99.60022%, 41.970825%, 29.981995%)" offset="0.0664062"/><stop stop-opacity="1" stop-color="rgb(99.479675%, 41.973877%, 30.271912%)" offset="0.0703125"/><stop stop-opacity="1" stop-color="rgb(99.359131%, 41.976929%, 30.561829%)" offset="0.0742188"/><stop stop-opacity="1" stop-color="rgb(99.240112%, 41.981506%, 30.851746%)" offset="0.078125"/><stop stop-opacity="1" stop-color="rgb(99.119568%, 41.984558%, 31.141663%)" offset="0.0820313"/><stop stop-opacity="1" stop-color="rgb(99.000549%, 41.98761%, 31.43158%)" offset="0.0859375"/><stop stop-opacity="1" stop-color="rgb(98.880005%, 41.990662%, 31.721497%)" offset="0.0898438"/><stop stop-opacity="1" stop-color="rgb(98.75946%, 41.995239%, 32.011414%)" offset="0.09375"/><stop stop-opacity="1" stop-color="rgb(98.638916%, 41.998291%, 32.301331%)" offset="0.0976563"/><stop stop-opacity="1" stop-color="rgb(98.519897%, 42.001343%, 32.591248%)" offset="0.101563"/><stop stop-opacity="1" stop-color="rgb(98.399353%, 42.004395%, 32.881165%)" offset="0.105469"/><stop stop-opacity="1" stop-color="rgb(98.278809%, 42.008972%, 33.171082%)" offset="0.109375"/><stop stop-opacity="1" stop-color="rgb(98.158264%, 42.012024%, 33.460999%)" offset="0.113281"/><stop stop-opacity="1" stop-color="rgb(98.039246%, 42.015076%, 33.750916%)" offset="0.117188"/><stop stop-opacity="1" stop-color="rgb(97.918701%, 42.018127%, 34.040833%)" offset="0.121094"/><stop stop-opacity="1" stop-color="rgb(97.799683%, 42.022705%, 34.33075%)" offset="0.125"/><stop stop-opacity="1" stop-color="rgb(97.679138%, 42.025757%, 34.620667%)" offset="0.128906"/><stop stop-opacity="1" stop-color="rgb(97.558594%, 42.028809%, 34.910583%)" offset="0.132812"/><stop stop-opacity="1" stop-color="rgb(97.438049%, 42.03186%, 35.198975%)" offset="0.136719"/><stop stop-opacity="1" stop-color="rgb(97.319031%, 42.036438%, 35.488892%)" offset="0.140625"/><stop stop-opacity="1" stop-color="rgb(97.198486%, 42.03949%, 35.778809%)" offset="0.144531"/><stop stop-opacity="1" stop-color="rgb(97.079468%, 42.042542%, 36.068726%)" offset="0.148438"/><stop stop-opacity="1" stop-color="rgb(96.958923%, 42.045593%, 36.358643%)" offset="0.152344"/><stop stop-opacity="1" stop-color="rgb(96.838379%, 42.050171%, 36.64856%)" offset="0.15625"/><stop stop-opacity="1" stop-color="rgb(96.717834%, 42.053223%, 36.938477%)" offset="0.160156"/><stop stop-opacity="1" stop-color="rgb(96.598816%, 42.0578%, 37.228394%)" offset="0.164063"/><stop stop-opacity="1" stop-color="rgb(96.478271%, 42.060852%, 37.518311%)" offset="0.167969"/><stop stop-opacity="1" stop-color="rgb(96.359253%, 42.063904%, 37.808228%)" offset="0.171875"/><stop stop-opacity="1" stop-color="rgb(96.238708%, 42.066956%, 38.098145%)" offset="0.175781"/><stop stop-opacity="1" stop-color="rgb(96.118164%, 42.071533%, 38.388062%)" offset="0.179688"/><stop stop-opacity="1" stop-color="rgb(95.99762%, 42.074585%, 38.677979%)" offset="0.183594"/><stop stop-opacity="1" stop-color="rgb(95.878601%, 42.077637%, 38.967896%)" offset="0.1875"/><stop stop-opacity="1" stop-color="rgb(95.758057%, 42.080688%, 39.257812%)" offset="0.191406"/><stop stop-opacity="1" stop-color="rgb(95.639038%, 42.085266%, 39.547729%)" offset="0.195312"/><stop stop-opacity="1" stop-color="rgb(95.518494%, 42.088318%, 39.837646%)" offset="0.199219"/><stop stop-opacity="1" stop-color="rgb(95.397949%, 42.09137%, 40.127563%)" offset="0.203125"/><stop stop-opacity="1" stop-color="rgb(95.277405%, 42.094421%, 40.415955%)" offset="0.207031"/><stop stop-opacity="1" stop-color="rgb(95.158386%, 42.098999%, 40.705872%)" offset="0.210938"/><stop stop-opacity="1" stop-color="rgb(95.037842%, 42.102051%, 40.995789%)" offset="0.214844"/><stop stop-opacity="1" stop-color="rgb(94.918823%, 42.105103%, 41.285706%)" offset="0.21875"/><stop stop-opacity="1" stop-color="rgb(94.798279%, 42.108154%, 41.575623%)" offset="0.222656"/><stop stop-opacity="1" stop-color="rgb(94.677734%, 42.112732%, 41.86554%)" offset="0.226563"/><stop stop-opacity="1" stop-color="rgb(94.55719%, 42.115784%, 42.155457%)" offset="0.230469"/><stop stop-opacity="1" stop-color="rgb(94.438171%, 42.118835%, 42.445374%)" offset="0.234375"/><stop stop-opacity="1" stop-color="rgb(94.317627%, 42.121887%, 42.735291%)" offset="0.238281"/><stop stop-opacity="1" stop-color="rgb(94.197083%, 42.126465%, 43.025208%)" offset="0.242188"/><stop stop-opacity="1" stop-color="rgb(94.076538%, 42.129517%, 43.315125%)" offset="0.246094"/><stop stop-opacity="1" stop-color="rgb(93.95752%, 42.132568%, 43.605042%)" offset="0.25"/><stop stop-opacity="1" stop-color="rgb(93.836975%, 42.13562%, 43.894958%)" offset="0.253906"/><stop stop-opacity="1" stop-color="rgb(93.717957%, 42.140198%, 44.184875%)" offset="0.257813"/><stop stop-opacity="1" stop-color="rgb(93.597412%, 42.14325%, 44.474792%)" offset="0.261719"/><stop stop-opacity="1" stop-color="rgb(93.476868%, 42.146301%, 44.764709%)" offset="0.265625"/><stop stop-opacity="1" stop-color="rgb(93.356323%, 42.149353%, 45.054626%)" offset="0.269531"/><stop stop-opacity="1" stop-color="rgb(93.237305%, 42.153931%, 45.344543%)" offset="0.273438"/><stop stop-opacity="1" stop-color="rgb(93.11676%, 42.156982%, 45.632935%)" offset="0.277344"/><stop stop-opacity="1" stop-color="rgb(92.997742%, 42.160034%, 45.922852%)" offset="0.28125"/><stop stop-opacity="1" stop-color="rgb(92.877197%, 42.163086%, 46.212769%)" offset="0.285156"/><stop stop-opacity="1" stop-color="rgb(92.756653%, 42.167664%, 46.502686%)" offset="0.289063"/><stop stop-opacity="1" stop-color="rgb(92.636108%, 42.170715%, 46.792603%)" offset="0.292969"/><stop stop-opacity="1" stop-color="rgb(92.51709%, 42.175293%, 47.08252%)" offset="0.296875"/><stop stop-opacity="1" stop-color="rgb(92.396545%, 42.178345%, 47.372437%)" offset="0.300781"/><stop stop-opacity="1" stop-color="rgb(92.277527%, 42.181396%, 47.662354%)" offset="0.304688"/><stop stop-opacity="1" stop-color="rgb(92.156982%, 42.184448%, 47.952271%)" offset="0.308594"/><stop stop-opacity="1" stop-color="rgb(92.036438%, 42.189026%, 48.242188%)" offset="0.3125"/><stop stop-opacity="1" stop-color="rgb(91.915894%, 42.192078%, 48.532104%)" offset="0.316406"/><stop stop-opacity="1" stop-color="rgb(91.796875%, 42.195129%, 48.822021%)" offset="0.320313"/><stop stop-opacity="1" stop-color="rgb(91.676331%, 42.198181%, 49.111938%)" offset="0.324219"/><stop stop-opacity="1" stop-color="rgb(91.557312%, 42.202759%, 49.401855%)" offset="0.328125"/><stop stop-opacity="1" stop-color="rgb(91.436768%, 42.205811%, 49.691772%)" offset="0.332031"/><stop stop-opacity="1" stop-color="rgb(91.316223%, 42.208862%, 49.981689%)" offset="0.335938"/><stop stop-opacity="1" stop-color="rgb(91.195679%, 42.211914%, 50.271606%)" offset="0.339844"/><stop stop-opacity="1" stop-color="rgb(91.07666%, 42.216492%, 50.561523%)" offset="0.34375"/><stop stop-opacity="1" stop-color="rgb(90.956116%, 42.219543%, 50.849915%)" offset="0.347656"/><stop stop-opacity="1" stop-color="rgb(90.835571%, 42.222595%, 51.139832%)" offset="0.351563"/><stop stop-opacity="1" stop-color="rgb(90.715027%, 42.225647%, 51.429749%)" offset="0.355469"/><stop stop-opacity="1" stop-color="rgb(90.596008%, 42.230225%, 51.719666%)" offset="0.359375"/><stop stop-opacity="1" stop-color="rgb(90.475464%, 42.233276%, 52.009583%)" offset="0.363281"/><stop stop-opacity="1" stop-color="rgb(90.356445%, 42.236328%, 52.2995%)" offset="0.367188"/><stop stop-opacity="1" stop-color="rgb(90.235901%, 42.23938%, 52.589417%)" offset="0.371094"/><stop stop-opacity="1" stop-color="rgb(90.115356%, 42.243958%, 52.879333%)" offset="0.375"/><stop stop-opacity="1" stop-color="rgb(89.994812%, 42.247009%, 53.16925%)" offset="0.378906"/><stop stop-opacity="1" stop-color="rgb(89.875793%, 42.250061%, 53.459167%)" offset="0.382812"/><stop stop-opacity="1" stop-color="rgb(89.755249%, 42.253113%, 53.749084%)" offset="0.386719"/><stop stop-opacity="1" stop-color="rgb(89.63623%, 42.25769%, 54.039001%)" offset="0.390625"/><stop stop-opacity="1" stop-color="rgb(89.515686%, 42.260742%, 54.328918%)" offset="0.394531"/><stop stop-opacity="1" stop-color="rgb(89.395142%, 42.263794%, 54.618835%)" offset="0.398438"/><stop stop-opacity="1" stop-color="rgb(89.274597%, 42.266846%, 54.908752%)" offset="0.402344"/><stop stop-opacity="1" stop-color="rgb(89.155579%, 42.271423%, 55.198669%)" offset="0.40625"/><stop stop-opacity="1" stop-color="rgb(89.035034%, 42.274475%, 55.488586%)" offset="0.410156"/><stop stop-opacity="1" stop-color="rgb(88.916016%, 42.277527%, 55.778503%)" offset="0.414062"/><stop stop-opacity="1" stop-color="rgb(88.795471%, 42.280579%, 56.066895%)" offset="0.417969"/><stop stop-opacity="1" stop-color="rgb(88.674927%, 42.285156%, 56.356812%)" offset="0.421875"/><stop stop-opacity="1" stop-color="rgb(88.554382%, 42.288208%, 56.646729%)" offset="0.425781"/><stop stop-opacity="1" stop-color="rgb(88.435364%, 42.292786%, 56.936646%)" offset="0.429688"/><stop stop-opacity="1" stop-color="rgb(88.314819%, 42.295837%, 57.226562%)" offset="0.433594"/><stop stop-opacity="1" stop-color="rgb(88.195801%, 42.298889%, 57.516479%)" offset="0.4375"/><stop stop-opacity="1" stop-color="rgb(88.075256%, 42.301941%, 57.806396%)" offset="0.441406"/><stop stop-opacity="1" stop-color="rgb(87.954712%, 42.306519%, 58.096313%)" offset="0.445313"/><stop stop-opacity="1" stop-color="rgb(87.834167%, 42.30957%, 58.38623%)" offset="0.449219"/><stop stop-opacity="1" stop-color="rgb(87.715149%, 42.312622%, 58.676147%)" offset="0.453125"/><stop stop-opacity="1" stop-color="rgb(87.594604%, 42.315674%, 58.966064%)" offset="0.457031"/><stop stop-opacity="1" stop-color="rgb(87.47406%, 42.320251%, 59.255981%)" offset="0.460938"/><stop stop-opacity="1" stop-color="rgb(87.353516%, 42.323303%, 59.545898%)" offset="0.464844"/><stop stop-opacity="1" stop-color="rgb(87.234497%, 42.326355%, 59.835815%)" offset="0.46875"/><stop stop-opacity="1" stop-color="rgb(87.113953%, 42.329407%, 60.125732%)" offset="0.472656"/><stop stop-opacity="1" stop-color="rgb(86.994934%, 42.333984%, 60.415649%)" offset="0.476563"/><stop stop-opacity="1" stop-color="rgb(86.87439%, 42.337036%, 60.705566%)" offset="0.480469"/><stop stop-opacity="1" stop-color="rgb(86.753845%, 42.340088%, 60.995483%)" offset="0.484375"/><stop stop-opacity="1" stop-color="rgb(86.633301%, 42.34314%, 61.2854%)" offset="0.488281"/><stop stop-opacity="1" stop-color="rgb(86.514282%, 42.347717%, 61.575317%)" offset="0.492188"/><stop stop-opacity="1" stop-color="rgb(86.393738%, 42.350769%, 61.863708%)" offset="0.496094"/><stop stop-opacity="1" stop-color="rgb(86.274719%, 42.353821%, 62.153625%)" offset="0.5"/><stop stop-opacity="1" stop-color="rgb(86.154175%, 42.356873%, 62.443542%)" offset="0.503906"/><stop stop-opacity="1" stop-color="rgb(86.03363%, 42.36145%, 62.733459%)" offset="0.507812"/><stop stop-opacity="1" stop-color="rgb(85.913086%, 42.364502%, 63.023376%)" offset="0.511719"/><stop stop-opacity="1" stop-color="rgb(85.794067%, 42.367554%, 63.313293%)" offset="0.515625"/><stop stop-opacity="1" stop-color="rgb(85.673523%, 42.370605%, 63.60321%)" offset="0.519531"/><stop stop-opacity="1" stop-color="rgb(85.554504%, 42.375183%, 63.893127%)" offset="0.523438"/><stop stop-opacity="1" stop-color="rgb(85.43396%, 42.378235%, 64.183044%)" offset="0.527344"/><stop stop-opacity="1" stop-color="rgb(85.313416%, 42.381287%, 64.472961%)" offset="0.53125"/><stop stop-opacity="1" stop-color="rgb(85.192871%, 42.384338%, 64.762878%)" offset="0.535156"/><stop stop-opacity="1" stop-color="rgb(85.073853%, 42.388916%, 65.052795%)" offset="0.539063"/><stop stop-opacity="1" stop-color="rgb(84.953308%, 42.391968%, 65.342712%)" offset="0.542969"/><stop stop-opacity="1" stop-color="rgb(84.83429%, 42.39502%, 65.632629%)" offset="0.546875"/><stop stop-opacity="1" stop-color="rgb(84.713745%, 42.398071%, 65.922546%)" offset="0.550781"/><stop stop-opacity="1" stop-color="rgb(84.593201%, 42.402649%, 66.212463%)" offset="0.554688"/><stop stop-opacity="1" stop-color="rgb(84.472656%, 42.405701%, 66.50238%)" offset="0.558594"/><stop stop-opacity="1" stop-color="rgb(84.353638%, 42.410278%, 66.792297%)" offset="0.5625"/><stop stop-opacity="1" stop-color="rgb(84.233093%, 42.41333%, 67.080688%)" offset="0.566406"/><stop stop-opacity="1" stop-color="rgb(84.112549%, 42.416382%, 67.370605%)" offset="0.570313"/><stop stop-opacity="1" stop-color="rgb(83.992004%, 42.419434%, 67.660522%)" offset="0.574219"/><stop stop-opacity="1" stop-color="rgb(83.872986%, 42.424011%, 67.950439%)" offset="0.578125"/><stop stop-opacity="1" stop-color="rgb(83.752441%, 42.427063%, 68.240356%)" offset="0.582031"/><stop stop-opacity="1" stop-color="rgb(83.633423%, 42.430115%, 68.530273%)" offset="0.585938"/><stop stop-opacity="1" stop-color="rgb(83.512878%, 42.433167%, 68.82019%)" offset="0.589844"/><stop stop-opacity="1" stop-color="rgb(83.392334%, 42.437744%, 69.110107%)" offset="0.59375"/><stop stop-opacity="1" stop-color="rgb(83.27179%, 42.440796%, 69.400024%)" offset="0.597656"/><stop stop-opacity="1" stop-color="rgb(83.152771%, 42.443848%, 69.689941%)" offset="0.601563"/><stop stop-opacity="1" stop-color="rgb(83.032227%, 42.446899%, 69.979858%)" offset="0.605469"/><stop stop-opacity="1" stop-color="rgb(82.913208%, 42.451477%, 70.269775%)" offset="0.609375"/><stop stop-opacity="1" stop-color="rgb(82.792664%, 42.454529%, 70.559692%)" offset="0.613281"/><stop stop-opacity="1" stop-color="rgb(82.672119%, 42.457581%, 70.849609%)" offset="0.617188"/><stop stop-opacity="1" stop-color="rgb(82.551575%, 42.460632%, 71.139526%)" offset="0.621094"/><stop stop-opacity="1" stop-color="rgb(82.432556%, 42.46521%, 71.429443%)" offset="0.625"/><stop stop-opacity="1" stop-color="rgb(82.312012%, 42.468262%, 71.71936%)" offset="0.628906"/><stop stop-opacity="1" stop-color="rgb(82.192993%, 42.471313%, 72.009277%)" offset="0.632813"/><stop stop-opacity="1" stop-color="rgb(82.072449%, 42.474365%, 72.297668%)" offset="0.636719"/><stop stop-opacity="1" stop-color="rgb(81.951904%, 42.478943%, 72.587585%)" offset="0.640625"/><stop stop-opacity="1" stop-color="rgb(81.83136%, 42.481995%, 72.877502%)" offset="0.644531"/><stop stop-opacity="1" stop-color="rgb(81.712341%, 42.485046%, 73.167419%)" offset="0.648438"/><stop stop-opacity="1" stop-color="rgb(81.591797%, 42.488098%, 73.457336%)" offset="0.652344"/><stop stop-opacity="1" stop-color="rgb(81.472778%, 42.492676%, 73.747253%)" offset="0.65625"/><stop stop-opacity="1" stop-color="rgb(81.352234%, 42.495728%, 74.03717%)" offset="0.660156"/><stop stop-opacity="1" stop-color="rgb(81.231689%, 42.498779%, 74.327087%)" offset="0.664063"/><stop stop-opacity="1" stop-color="rgb(81.111145%, 42.501831%, 74.617004%)" offset="0.667969"/><stop stop-opacity="1" stop-color="rgb(80.992126%, 42.506409%, 74.906921%)" offset="0.671875"/><stop stop-opacity="1" stop-color="rgb(80.871582%, 42.50946%, 75.196838%)" offset="0.675781"/><stop stop-opacity="1" stop-color="rgb(80.751038%, 42.512512%, 75.486755%)" offset="0.679688"/><stop stop-opacity="1" stop-color="rgb(80.630493%, 42.515564%, 75.776672%)" offset="0.683594"/><stop stop-opacity="1" stop-color="rgb(80.511475%, 42.520142%, 76.066589%)" offset="0.6875"/><stop stop-opacity="1" stop-color="rgb(80.39093%, 42.523193%, 76.356506%)" offset="0.691406"/><stop stop-opacity="1" stop-color="rgb(80.271912%, 42.526245%, 76.646423%)" offset="0.695313"/><stop stop-opacity="1" stop-color="rgb(80.151367%, 42.529297%, 76.93634%)" offset="0.699219"/><stop stop-opacity="1" stop-color="rgb(80.030823%, 42.533875%, 77.226257%)" offset="0.703125"/><stop stop-opacity="1" stop-color="rgb(79.910278%, 42.536926%, 77.514648%)" offset="0.707031"/><stop stop-opacity="1" stop-color="rgb(79.79126%, 42.541504%, 77.804565%)" offset="0.710938"/><stop stop-opacity="1" stop-color="rgb(79.670715%, 42.544556%, 78.094482%)" offset="0.714844"/><stop stop-opacity="1" stop-color="rgb(79.551697%, 42.547607%, 78.384399%)" offset="0.71875"/><stop stop-opacity="1" stop-color="rgb(79.431152%, 42.550659%, 78.674316%)" offset="0.722656"/><stop stop-opacity="1" stop-color="rgb(79.310608%, 42.555237%, 78.964233%)" offset="0.726562"/><stop stop-opacity="1" stop-color="rgb(79.190063%, 42.558289%, 79.25415%)" offset="0.730469"/><stop stop-opacity="1" stop-color="rgb(79.071045%, 42.56134%, 79.544067%)" offset="0.734375"/><stop stop-opacity="1" stop-color="rgb(78.9505%, 42.564392%, 79.833984%)" offset="0.738281"/><stop stop-opacity="1" stop-color="rgb(78.831482%, 42.56897%, 80.123901%)" offset="0.742188"/><stop stop-opacity="1" stop-color="rgb(78.710938%, 42.572021%, 80.413818%)" offset="0.746094"/><stop stop-opacity="1" stop-color="rgb(78.590393%, 42.575073%, 80.703735%)" offset="0.75"/><stop stop-opacity="1" stop-color="rgb(78.469849%, 42.578125%, 80.993652%)" offset="0.753906"/><stop stop-opacity="1" stop-color="rgb(78.35083%, 42.582703%, 81.283569%)" offset="0.757812"/><stop stop-opacity="1" stop-color="rgb(78.230286%, 42.585754%, 81.573486%)" offset="0.761719"/><stop stop-opacity="1" stop-color="rgb(78.111267%, 42.588806%, 81.863403%)" offset="0.765625"/><stop stop-opacity="1" stop-color="rgb(77.990723%, 42.591858%, 82.15332%)" offset="0.769531"/><stop stop-opacity="1" stop-color="rgb(77.870178%, 42.596436%, 82.443237%)" offset="0.773438"/><stop stop-opacity="1" stop-color="rgb(77.749634%, 42.599487%, 82.731628%)" offset="0.777344"/><stop stop-opacity="1" stop-color="rgb(77.630615%, 42.602539%, 83.021545%)" offset="0.78125"/><stop stop-opacity="1" stop-color="rgb(77.510071%, 42.605591%, 83.311462%)" offset="0.785156"/><stop stop-opacity="1" stop-color="rgb(77.391052%, 42.610168%, 83.601379%)" offset="0.789062"/><stop stop-opacity="1" stop-color="rgb(77.270508%, 42.61322%, 83.891296%)" offset="0.792969"/><stop stop-opacity="1" stop-color="rgb(77.149963%, 42.616272%, 84.181213%)" offset="0.796875"/><stop stop-opacity="1" stop-color="rgb(77.029419%, 42.619324%, 84.47113%)" offset="0.800781"/><stop stop-opacity="1" stop-color="rgb(76.9104%, 42.623901%, 84.761047%)" offset="0.804687"/><stop stop-opacity="1" stop-color="rgb(76.789856%, 42.626953%, 85.050964%)" offset="0.808594"/><stop stop-opacity="1" stop-color="rgb(76.669312%, 42.630005%, 85.340881%)" offset="0.8125"/><stop stop-opacity="1" stop-color="rgb(76.548767%, 42.633057%, 85.630798%)" offset="0.816406"/><stop stop-opacity="1" stop-color="rgb(76.429749%, 42.637634%, 85.920715%)" offset="0.820312"/><stop stop-opacity="1" stop-color="rgb(76.309204%, 42.640686%, 86.210632%)" offset="0.824219"/><stop stop-opacity="1" stop-color="rgb(76.190186%, 42.643738%, 86.500549%)" offset="0.828125"/><stop stop-opacity="1" stop-color="rgb(76.069641%, 42.64679%, 86.790466%)" offset="0.832031"/><stop stop-opacity="1" stop-color="rgb(75.949097%, 42.651367%, 87.080383%)" offset="0.835937"/><stop stop-opacity="1" stop-color="rgb(75.828552%, 42.654419%, 87.3703%)" offset="0.839844"/><stop stop-opacity="1" stop-color="rgb(75.709534%, 42.658997%, 87.660217%)" offset="0.84375"/><stop stop-opacity="1" stop-color="rgb(75.588989%, 42.662048%, 87.948608%)" offset="0.847656"/><stop stop-opacity="1" stop-color="rgb(75.469971%, 42.6651%, 88.238525%)" offset="0.851562"/><stop stop-opacity="1" stop-color="rgb(75.349426%, 42.668152%, 88.528442%)" offset="0.855469"/><stop stop-opacity="1" stop-color="rgb(75.228882%, 42.672729%, 88.818359%)" offset="0.859375"/><stop stop-opacity="1" stop-color="rgb(75.108337%, 42.675781%, 89.108276%)" offset="0.863281"/><stop stop-opacity="1" stop-color="rgb(74.989319%, 42.678833%, 89.398193%)" offset="0.867187"/><stop stop-opacity="1" stop-color="rgb(74.868774%, 42.681885%, 89.68811%)" offset="0.871094"/><stop stop-opacity="1" stop-color="rgb(74.749756%, 42.686462%, 89.978027%)" offset="0.875"/><stop stop-opacity="1" stop-color="rgb(74.629211%, 42.689514%, 90.267944%)" offset="0.878906"/><stop stop-opacity="1" stop-color="rgb(74.508667%, 42.692566%, 90.557861%)" offset="0.882812"/><stop stop-opacity="1" stop-color="rgb(74.388123%, 42.695618%, 90.847778%)" offset="0.886719"/><stop stop-opacity="1" stop-color="rgb(74.269104%, 42.700195%, 91.137695%)" offset="0.890625"/><stop stop-opacity="1" stop-color="rgb(74.14856%, 42.703247%, 91.427612%)" offset="0.894531"/><stop stop-opacity="1" stop-color="rgb(74.029541%, 42.706299%, 91.717529%)" offset="0.898437"/><stop stop-opacity="1" stop-color="rgb(73.908997%, 42.709351%, 92.007446%)" offset="0.902344"/><stop stop-opacity="1" stop-color="rgb(73.788452%, 42.713928%, 92.297363%)" offset="0.90625"/><stop stop-opacity="1" stop-color="rgb(73.667908%, 42.71698%, 92.58728%)" offset="0.910156"/><stop stop-opacity="1" stop-color="rgb(73.548889%, 42.720032%, 92.877197%)" offset="0.914062"/><stop stop-opacity="1" stop-color="rgb(73.428345%, 42.723083%, 93.165588%)" offset="0.917969"/><stop stop-opacity="1" stop-color="rgb(73.3078%, 42.727661%, 93.455505%)" offset="0.921875"/><stop stop-opacity="1" stop-color="rgb(73.187256%, 42.730713%, 93.745422%)" offset="0.925781"/><stop stop-opacity="1" stop-color="rgb(73.068237%, 42.733765%, 94.035339%)" offset="0.929687"/><stop stop-opacity="1" stop-color="rgb(72.947693%, 42.736816%, 94.325256%)" offset="0.933594"/><stop stop-opacity="1" stop-color="rgb(72.828674%, 42.741394%, 94.615173%)" offset="0.9375"/><stop stop-opacity="1" stop-color="rgb(72.70813%, 42.744446%, 94.90509%)" offset="0.941406"/><stop stop-opacity="1" stop-color="rgb(72.587585%, 42.747498%, 95.195007%)" offset="0.945312"/><stop stop-opacity="1" stop-color="rgb(72.567749%, 42.747498%, 95.24231%)" offset="0.953125"/><stop stop-opacity="1" stop-color="rgb(72.549438%, 42.749023%, 95.289612%)" offset="0.96875"/><stop stop-opacity="1" stop-color="rgb(72.549438%, 42.749023%, 95.289612%)" offset="1"/></linearGradient><clipPath id="fc078f7e49"><rect x="0" width="810" y="0" height="243"/></clipPath><clipPath id="722b5e35a8"><rect x="0" width="810" y="0" height="243"/></clipPath><clipPath id="6aacf45041"><rect x="0" width="810" y="0" height="243"/></clipPath><mask id="2d987c194e"><g filter="url(#4f48cbe7a4)"><g transform="matrix(1, 0, 0, 1, 0, -0.000000000000048546)"><g clip-path="url(#6aacf45041)"><g transform="matrix(1, 0, 0, 1, 0, -0.000000000000048546)"><g clip-path="url(#722b5e35a8)"><g fill="#000000" fill-opacity="1"><g transform="translate(43.242187, 122.74823)"><g><path d="M 32.765625 -91.65625 L 32.765625 0 L 7.28125 0 L 7.28125 -91.65625 Z M 32.765625 -91.65625 "/></g></g></g><g fill="#000000" fill-opacity="1"><g transform="translate(83.284571, 122.74823)"><g><path d="M 92.1875 0 L 66.703125 0 L 32.765625 -51.21875 L 32.765625 0 L 7.28125 0 L 7.28125 -91.65625 L 32.765625 -91.65625 L 66.703125 -39.78125 L 66.703125 -91.65625 L 92.1875 -91.65625 Z M 92.1875 0 "/></g></g></g><g fill="#000000" fill-opacity="1"><g transform="translate(182.740487, 122.74823)"><g><path d="M 69.421875 -91.65625 L 69.421875 -71.375 L 32.765625 -71.375 L 32.765625 -55.25 L 59.8125 -55.25 L 59.8125 -35.890625 L 32.765625 -35.890625 L 32.765625 0 L 7.28125 0 L 7.28125 -91.65625 Z M 69.421875 -91.65625 "/></g></g></g><g fill="#000000" fill-opacity="1"><g transform="translate(255.674826, 122.74823)"><g><path d="M 51.21875 0.90625 C 42.644531 0.90625 34.757812 -1.109375 27.5625 -5.140625 C 20.363281 -9.171875 14.660156 -14.757812 10.453125 -21.90625 C 6.253906 -29.0625 4.15625 -37.144531 4.15625 -46.15625 C 4.15625 -55.164062 6.253906 -63.242188 10.453125 -70.390625 C 14.660156 -77.546875 20.363281 -83.117188 27.5625 -87.109375 C 34.757812 -91.097656 42.644531 -93.09375 51.21875 -93.09375 C 59.894531 -93.09375 67.804688 -91.097656 74.953125 -87.109375 C 82.109375 -83.117188 87.765625 -77.546875 91.921875 -70.390625 C 96.078125 -63.242188 98.15625 -55.164062 98.15625 -46.15625 C 98.15625 -37.144531 96.078125 -29.0625 91.921875 -21.90625 C 87.765625 -14.757812 82.085938 -9.171875 74.890625 -5.140625 C 67.691406 -1.109375 59.800781 0.90625 51.21875 0.90625 Z M 51.21875 -22.75 C 57.726562 -22.75 62.863281 -24.875 66.625 -29.125 C 70.394531 -33.375 72.28125 -39.050781 72.28125 -46.15625 C 72.28125 -53.4375 70.394531 -59.175781 66.625 -63.375 C 62.863281 -67.582031 57.726562 -69.6875 51.21875 -69.6875 C 44.632812 -69.6875 39.476562 -67.582031 35.75 -63.375 C 32.019531 -59.175781 30.15625 -53.4375 30.15625 -46.15625 C 30.15625 -38.957031 32.019531 -33.253906 35.75 -29.046875 C 39.476562 -24.847656 44.632812 -22.75 51.21875 -22.75 Z M 51.21875 -22.75 "/></g></g></g><g fill="#000000" fill-opacity="1"><g transform="translate(357.990907, 122.74823)"><g><path d="M 65.78125 -47.0625 C 71.15625 -45.851562 75.425781 -43.1875 78.59375 -39.0625 C 81.757812 -34.945312 83.34375 -30.25 83.34375 -24.96875 C 83.34375 -17.164062 80.65625 -11.050781 75.28125 -6.625 C 69.90625 -2.207031 62.363281 0 52.65625 0 L 7.28125 0 L 7.28125 -91.65625 L 51.21875 -91.65625 C 60.582031 -91.65625 67.929688 -89.570312 73.265625 -85.40625 C 78.597656 -81.25 81.265625 -75.40625 81.265625 -67.875 C 81.265625 -62.5 79.851562 -58.007812 77.03125 -54.40625 C 74.21875 -50.8125 70.46875 -48.363281 65.78125 -47.0625 Z M 32.765625 -55.25 L 45.640625 -55.25 C 52.046875 -55.25 55.25 -57.894531 55.25 -63.1875 C 55.25 -68.644531 52.046875 -71.375 45.640625 -71.375 L 32.765625 -71.375 Z M 47.578125 -20.546875 C 53.992188 -20.546875 57.203125 -23.234375 57.203125 -28.609375 C 57.203125 -31.378906 56.359375 -33.5 54.671875 -34.96875 C 52.984375 -36.445312 50.578125 -37.1875 47.453125 -37.1875 L 32.765625 -37.1875 L 32.765625 -20.546875 Z M 47.578125 -20.546875 "/></g></g></g><g fill="#000000" fill-opacity="1"><g transform="translate(445.226102, 122.74823)"><g><path d="M 90.625 -91.65625 L 58.375 -29.125 L 58.375 0 L 32.765625 0 L 32.765625 -29.125 L 0.515625 -91.65625 L 29.640625 -91.65625 L 45.765625 -56.296875 L 61.890625 -91.65625 Z M 90.625 -91.65625 "/></g></g></g><g fill="#000000" fill-opacity="1"><g transform="translate(536.361535, 122.74823)"><g><path d="M 76.3125 -91.65625 L 76.3125 -71.375 L 51.875 -71.375 L 51.875 0 L 26.390625 0 L 26.390625 -71.375 L 2.203125 -71.375 L 2.203125 -91.65625 Z M 76.3125 -91.65625 "/></g></g></g><g fill="#000000" fill-opacity="1"><g transform="translate(614.88622, 122.74823)"><g><path d="M 32.765625 -71.25 L 32.765625 -56.296875 L 62.015625 -56.296875 L 62.015625 -36.921875 L 32.765625 -36.921875 L 32.765625 -20.40625 L 65.921875 -20.40625 L 65.921875 0 L 7.28125 0 L 7.28125 -91.65625 L 65.921875 -91.65625 L 65.921875 -71.25 Z M 32.765625 -71.25 "/></g></g></g><g fill="#000000" fill-opacity="1"><g transform="translate(686.13045, 122.74823)"><g><path d="M 41.859375 0.90625 C 31.203125 0.90625 22.445312 -1.625 15.59375 -6.6875 C 8.75 -11.757812 5.066406 -19.019531 4.546875 -28.46875 L 31.71875 -28.46875 C 31.976562 -25.257812 32.929688 -22.921875 34.578125 -21.453125 C 36.222656 -19.984375 38.347656 -19.25 40.953125 -19.25 C 43.296875 -19.25 45.222656 -19.832031 46.734375 -21 C 48.253906 -22.164062 49.015625 -23.789062 49.015625 -25.875 C 49.015625 -28.5625 47.753906 -30.640625 45.234375 -32.109375 C 42.722656 -33.585938 38.65625 -35.234375 33.03125 -37.046875 C 27.039062 -39.046875 22.203125 -40.976562 18.515625 -42.84375 C 14.835938 -44.707031 11.632812 -47.4375 8.90625 -51.03125 C 6.175781 -54.625 4.8125 -59.328125 4.8125 -65.140625 C 4.8125 -71.035156 6.285156 -76.082031 9.234375 -80.28125 C 12.179688 -84.488281 16.253906 -87.675781 21.453125 -89.84375 C 26.648438 -92.007812 32.546875 -93.09375 39.140625 -93.09375 C 49.796875 -93.09375 58.304688 -90.597656 64.671875 -85.609375 C 71.046875 -80.628906 74.453125 -73.632812 74.890625 -64.625 L 47.203125 -64.625 C 47.109375 -67.394531 46.257812 -69.472656 44.65625 -70.859375 C 43.050781 -72.242188 40.992188 -72.9375 38.484375 -72.9375 C 36.578125 -72.9375 35.015625 -72.375 33.796875 -71.25 C 32.585938 -70.125 31.984375 -68.519531 31.984375 -66.4375 C 31.984375 -64.707031 32.65625 -63.210938 34 -61.953125 C 35.34375 -60.691406 37.007812 -59.609375 39 -58.703125 C 41 -57.796875 43.945312 -56.644531 47.84375 -55.25 C 53.65625 -53.257812 58.445312 -51.289062 62.21875 -49.34375 C 65.988281 -47.394531 69.238281 -44.664062 71.96875 -41.15625 C 74.695312 -37.644531 76.0625 -33.203125 76.0625 -27.828125 C 76.0625 -22.359375 74.695312 -17.457031 71.96875 -13.125 C 69.238281 -8.789062 65.289062 -5.367188 60.125 -2.859375 C 54.96875 -0.347656 48.878906 0.90625 41.859375 0.90625 Z M 41.859375 0.90625 "/></g></g></g></g></g></g></g></g></mask><clipPath id="e67ba7da47"><path d="M 0 0 L 810 0 L 810 243 L 0 243 Z M 0 0 " clip-rule="nonzero"/></clipPath><clipPath id="0d3764f421"><rect x="0" width="810" y="0" height="243"/></clipPath><clipPath id="f81f350127"><rect x="0" width="810" y="0" height="243"/></clipPath></defs><g transform="matrix(1, 0, 0, 1, 0, -0.000000000000048546)"><g clip-path="url(#f81f350127)"><g mask="url(#2d987c194e)"><g transform="matrix(1, 0, 0, 1, 0, -0.000000000000048546)"><g clip-path="url(#0d3764f421)"><g clip-path="url(#e67ba7da47)"><rect x="-294.84" fill="url(#7b56cace58)" width="1399.68" y="-88.452" height="419.903998"/></g></g></g></g></g></g><g fill="#ffffff" fill-opacity="1"><g transform="translate(39.925781, 220.982841)"><g><path d="M 22.0625 -52.296875 C 27.757812 -52.296875 32.695312 -51.234375 36.875 -49.109375 C 41.050781 -46.984375 44.253906 -43.941406 46.484375 -39.984375 C 48.710938 -36.035156 49.828125 -31.382812 49.828125 -26.03125 C 49.828125 -20.675781 48.710938 -16.035156 46.484375 -12.109375 C 44.253906 -8.191406 41.050781 -5.191406 36.875 -3.109375 C 32.695312 -1.035156 27.757812 0 22.0625 0 L 5.78125 0 L 5.78125 -52.296875 Z M 22.0625 -5.625 C 28.8125 -5.625 33.960938 -7.410156 37.515625 -10.984375 C 41.066406 -14.566406 42.84375 -19.582031 42.84375 -26.03125 C 42.84375 -32.539062 41.050781 -37.617188 37.46875 -41.265625 C 33.894531 -44.921875 28.757812 -46.75 22.0625 -46.75 L 12.609375 -46.75 L 12.609375 -5.625 Z M 22.0625 -5.625 "/></g></g></g><g fill="#ffffff" fill-opacity="1"><g transform="translate(92.96729, 220.982841)"><g><path d="M 43.296875 -22.140625 C 43.296875 -20.835938 43.21875 -19.457031 43.0625 -18 L 10.203125 -18 C 10.453125 -13.957031 11.835938 -10.796875 14.359375 -8.515625 C 16.890625 -6.242188 19.957031 -5.109375 23.5625 -5.109375 C 26.507812 -5.109375 28.972656 -5.796875 30.953125 -7.171875 C 32.929688 -8.546875 34.316406 -10.382812 35.109375 -12.6875 L 42.46875 -12.6875 C 41.363281 -8.726562 39.160156 -5.507812 35.859375 -3.03125 C 32.554688 -0.5625 28.457031 0.671875 23.5625 0.671875 C 19.65625 0.671875 16.164062 -0.203125 13.09375 -1.953125 C 10.019531 -3.703125 7.601562 -6.1875 5.84375 -9.40625 C 4.09375 -12.632812 3.21875 -16.378906 3.21875 -20.640625 C 3.21875 -24.890625 4.066406 -28.613281 5.765625 -31.8125 C 7.472656 -35.007812 9.863281 -37.472656 12.9375 -39.203125 C 16.019531 -40.929688 19.5625 -41.796875 23.5625 -41.796875 C 27.457031 -41.796875 30.90625 -40.941406 33.90625 -39.234375 C 36.914062 -37.535156 39.234375 -35.195312 40.859375 -32.21875 C 42.484375 -29.25 43.296875 -25.890625 43.296875 -22.140625 Z M 36.234375 -23.5625 C 36.234375 -26.164062 35.65625 -28.40625 34.5 -30.28125 C 33.351562 -32.15625 31.789062 -33.578125 29.8125 -34.546875 C 27.84375 -35.523438 25.660156 -36.015625 23.265625 -36.015625 C 19.804688 -36.015625 16.863281 -34.910156 14.4375 -32.703125 C 12.007812 -30.503906 10.625 -27.457031 10.28125 -23.5625 Z M 36.234375 -23.5625 "/></g></g></g><g fill="#ffffff" fill-opacity="1"><g transform="translate(139.481764, 220.982841)"><g><path d="M 20.328125 0.671875 C 17.179688 0.671875 14.359375 0.132812 11.859375 -0.9375 C 9.359375 -2.007812 7.378906 -3.507812 5.921875 -5.4375 C 4.472656 -7.363281 3.675781 -9.578125 3.53125 -12.078125 L 10.578125 -12.078125 C 10.773438 -10.023438 11.738281 -8.347656 13.46875 -7.046875 C 15.195312 -5.753906 17.460938 -5.109375 20.265625 -5.109375 C 22.859375 -5.109375 24.90625 -5.679688 26.40625 -6.828125 C 27.90625 -7.972656 28.65625 -9.421875 28.65625 -11.171875 C 28.65625 -12.972656 27.851562 -14.3125 26.25 -15.1875 C 24.65625 -16.0625 22.179688 -16.925781 18.828125 -17.78125 C 15.773438 -18.582031 13.285156 -19.394531 11.359375 -20.21875 C 9.441406 -21.039062 7.796875 -22.265625 6.421875 -23.890625 C 5.046875 -25.523438 4.359375 -27.664062 4.359375 -30.3125 C 4.359375 -32.414062 4.984375 -34.34375 6.234375 -36.09375 C 7.484375 -37.84375 9.253906 -39.226562 11.546875 -40.25 C 13.847656 -41.28125 16.476562 -41.796875 19.4375 -41.796875 C 23.988281 -41.796875 27.664062 -40.644531 30.46875 -38.34375 C 33.269531 -36.039062 34.769531 -32.890625 34.96875 -28.890625 L 28.140625 -28.890625 C 27.984375 -31.035156 27.117188 -32.757812 25.546875 -34.0625 C 23.972656 -35.363281 21.859375 -36.015625 19.203125 -36.015625 C 16.753906 -36.015625 14.800781 -35.488281 13.34375 -34.4375 C 11.894531 -33.382812 11.171875 -32.007812 11.171875 -30.3125 C 11.171875 -28.957031 11.609375 -27.84375 12.484375 -26.96875 C 13.367188 -26.09375 14.472656 -25.390625 15.796875 -24.859375 C 17.117188 -24.335938 18.957031 -23.753906 21.3125 -23.109375 C 24.257812 -22.304688 26.65625 -21.515625 28.5 -20.734375 C 30.351562 -19.960938 31.941406 -18.800781 33.265625 -17.25 C 34.597656 -15.707031 35.289062 -13.679688 35.34375 -11.171875 C 35.34375 -8.921875 34.71875 -6.894531 33.46875 -5.09375 C 32.21875 -3.300781 30.453125 -1.890625 28.171875 -0.859375 C 25.898438 0.160156 23.285156 0.671875 20.328125 0.671875 Z M 20.328125 0.671875 "/></g></g></g><g fill="#ffffff" fill-opacity="1"><g transform="translate(178.643949, 220.982841)"><g><path d="M 9.296875 -47.796875 C 8.003906 -47.796875 6.90625 -48.242188 6 -49.140625 C 5.101562 -50.046875 4.65625 -51.148438 4.65625 -52.453125 C 4.65625 -53.742188 5.101562 -54.835938 6 -55.734375 C 6.90625 -56.640625 8.003906 -57.09375 9.296875 -57.09375 C 10.546875 -57.09375 11.609375 -56.640625 12.484375 -55.734375 C 13.367188 -54.835938 13.8125 -53.742188 13.8125 -52.453125 C 13.8125 -51.148438 13.367188 -50.046875 12.484375 -49.140625 C 11.609375 -48.242188 10.546875 -47.796875 9.296875 -47.796875 Z M 12.609375 -41.109375 L 12.609375 0 L 5.78125 0 L 5.78125 -41.109375 Z M 12.609375 -41.109375 "/></g></g></g><g fill="#ffffff" fill-opacity="1"><g transform="translate(197.099697, 220.982841)"><g><path d="M 22.734375 -41.796875 C 26.285156 -41.796875 29.398438 -41.019531 32.078125 -39.46875 C 34.753906 -37.914062 36.742188 -35.960938 38.046875 -33.609375 L 38.046875 -41.109375 L 44.9375 -41.109375 L 44.9375 0.90625 C 44.9375 4.65625 44.132812 7.992188 42.53125 10.921875 C 40.9375 13.847656 38.648438 16.132812 35.671875 17.78125 C 32.703125 19.4375 29.238281 20.265625 25.28125 20.265625 C 19.882812 20.265625 15.382812 18.988281 11.78125 16.4375 C 8.175781 13.882812 6.050781 10.40625 5.40625 6 L 12.15625 6 C 12.90625 8.5 14.453125 10.507812 16.796875 12.03125 C 19.148438 13.5625 21.976562 14.328125 25.28125 14.328125 C 29.03125 14.328125 32.09375 13.148438 34.46875 10.796875 C 36.851562 8.453125 38.046875 5.15625 38.046875 0.90625 L 38.046875 -7.734375 C 36.691406 -5.328125 34.6875 -3.320312 32.03125 -1.71875 C 29.382812 -0.125 26.285156 0.671875 22.734375 0.671875 C 19.078125 0.671875 15.757812 -0.226562 12.78125 -2.03125 C 9.8125 -3.832031 7.472656 -6.359375 5.765625 -9.609375 C 4.066406 -12.859375 3.21875 -16.554688 3.21875 -20.703125 C 3.21875 -24.910156 4.066406 -28.601562 5.765625 -31.78125 C 7.472656 -34.957031 9.8125 -37.421875 12.78125 -39.171875 C 15.757812 -40.921875 19.078125 -41.796875 22.734375 -41.796875 Z M 38.046875 -20.640625 C 38.046875 -23.734375 37.421875 -26.429688 36.171875 -28.734375 C 34.921875 -31.035156 33.226562 -32.796875 31.09375 -34.015625 C 28.96875 -35.242188 26.628906 -35.859375 24.078125 -35.859375 C 21.535156 -35.859375 19.210938 -35.257812 17.109375 -34.0625 C 15.003906 -32.863281 13.328125 -31.113281 12.078125 -28.8125 C 10.828125 -26.507812 10.203125 -23.804688 10.203125 -20.703125 C 10.203125 -17.554688 10.828125 -14.816406 12.078125 -12.484375 C 13.328125 -10.160156 15.003906 -8.382812 17.109375 -7.15625 C 19.210938 -5.9375 21.535156 -5.328125 24.078125 -5.328125 C 26.628906 -5.328125 28.96875 -5.9375 31.09375 -7.15625 C 33.226562 -8.382812 34.921875 -10.160156 36.171875 -12.484375 C 37.421875 -14.816406 38.046875 -17.535156 38.046875 -20.640625 Z M 38.046875 -20.640625 "/></g></g></g><g fill="#ffffff" fill-opacity="1"><g transform="translate(247.815481, 220.982841)"><g><path d="M 25.8125 -41.875 C 30.8125 -41.875 34.863281 -40.359375 37.96875 -37.328125 C 41.070312 -34.296875 42.625 -29.929688 42.625 -24.234375 L 42.625 0 L 35.859375 0 L 35.859375 -23.265625 C 35.859375 -27.359375 34.832031 -30.492188 32.78125 -32.671875 C 30.738281 -34.847656 27.941406 -35.9375 24.390625 -35.9375 C 20.785156 -35.9375 17.921875 -34.8125 15.796875 -32.5625 C 13.671875 -30.3125 12.609375 -27.035156 12.609375 -22.734375 L 12.609375 0 L 5.78125 0 L 5.78125 -41.109375 L 12.609375 -41.109375 L 12.609375 -35.265625 C 13.953125 -37.367188 15.785156 -38.992188 18.109375 -40.140625 C 20.441406 -41.296875 23.007812 -41.875 25.8125 -41.875 Z M 25.8125 -41.875 "/></g></g></g><g fill="#ffffff" fill-opacity="1"><g transform="translate(295.830425, 220.982841)"><g><path d="M 7.953125 0.453125 C 6.648438 0.453125 5.546875 0.00390625 4.640625 -0.890625 C 3.742188 -1.796875 3.296875 -2.898438 3.296875 -4.203125 C 3.296875 -5.503906 3.742188 -6.601562 4.640625 -7.5 C 5.546875 -8.40625 6.648438 -8.859375 7.953125 -8.859375 C 9.203125 -8.859375 10.265625 -8.40625 11.140625 -7.5 C 12.015625 -6.601562 12.453125 -5.503906 12.453125 -4.203125 C 12.453125 -2.898438 12.015625 -1.796875 11.140625 -0.890625 C 10.265625 0.00390625 9.203125 0.453125 7.953125 0.453125 Z M 7.953125 0.453125 "/></g></g></g><g fill="#ffffff" fill-opacity="1"><g transform="translate(311.585345, 220.982841)"><g/></g></g><g fill="#ffffff" fill-opacity="1"><g transform="translate(331.616579, 220.982841)"><g><path d="M 31.96875 -26.9375 C 33.863281 -26.632812 35.597656 -25.859375 37.171875 -24.609375 C 38.753906 -23.359375 40.003906 -21.804688 40.921875 -19.953125 C 41.847656 -18.109375 42.3125 -16.132812 42.3125 -14.03125 C 42.3125 -11.375 41.632812 -8.984375 40.28125 -6.859375 C 38.9375 -4.734375 36.972656 -3.054688 34.390625 -1.828125 C 31.816406 -0.609375 28.78125 0 25.28125 0 L 5.78125 0 L 5.78125 -52.296875 L 24.53125 -52.296875 C 28.082031 -52.296875 31.109375 -51.707031 33.609375 -50.53125 C 36.109375 -49.351562 37.984375 -47.765625 39.234375 -45.765625 C 40.484375 -43.765625 41.109375 -41.515625 41.109375 -39.015625 C 41.109375 -35.910156 40.269531 -33.34375 38.59375 -31.3125 C 36.925781 -29.289062 34.71875 -27.832031 31.96875 -26.9375 Z M 12.609375 -29.71875 L 24.078125 -29.71875 C 27.285156 -29.71875 29.765625 -30.46875 31.515625 -31.96875 C 33.265625 -33.46875 34.140625 -35.539062 34.140625 -38.1875 C 34.140625 -40.84375 33.265625 -42.921875 31.515625 -44.421875 C 29.765625 -45.921875 27.238281 -46.671875 23.9375 -46.671875 L 12.609375 -46.671875 Z M 24.6875 -5.625 C 28.082031 -5.625 30.726562 -6.421875 32.625 -8.015625 C 34.53125 -9.617188 35.484375 -11.847656 35.484375 -14.703125 C 35.484375 -17.609375 34.484375 -19.894531 32.484375 -21.5625 C 30.484375 -23.238281 27.804688 -24.078125 24.453125 -24.078125 L 12.609375 -24.078125 L 12.609375 -5.625 Z M 24.6875 -5.625 "/></g></g></g><g fill="#ffffff" fill-opacity="1"><g transform="translate(377.605895, 220.982841)"><g><path d="M 42.25 -41.109375 L 42.25 0 L 35.421875 0 L 35.421875 -6.078125 C 34.117188 -3.972656 32.300781 -2.332031 29.96875 -1.15625 C 27.644531 0.0078125 25.082031 0.59375 22.28125 0.59375 C 19.082031 0.59375 16.207031 -0.0664062 13.65625 -1.390625 C 11.101562 -2.710938 9.085938 -4.695312 7.609375 -7.34375 C 6.140625 -10 5.40625 -13.226562 5.40625 -17.03125 L 5.40625 -41.109375 L 12.15625 -41.109375 L 12.15625 -17.9375 C 12.15625 -13.882812 13.179688 -10.769531 15.234375 -8.59375 C 17.285156 -6.414062 20.085938 -5.328125 23.640625 -5.328125 C 27.285156 -5.328125 30.160156 -6.453125 32.265625 -8.703125 C 34.367188 -10.953125 35.421875 -14.226562 35.421875 -18.53125 L 35.421875 -41.109375 Z M 42.25 -41.109375 "/></g></g></g><g fill="#ffffff" fill-opacity="1"><g transform="translate(425.620816, 220.982841)"><g><path d="M 9.296875 -47.796875 C 8.003906 -47.796875 6.90625 -48.242188 6 -49.140625 C 5.101562 -50.046875 4.65625 -51.148438 4.65625 -52.453125 C 4.65625 -53.742188 5.101562 -54.835938 6 -55.734375 C 6.90625 -56.640625 8.003906 -57.09375 9.296875 -57.09375 C 10.546875 -57.09375 11.609375 -56.640625 12.484375 -55.734375 C 13.367188 -54.835938 13.8125 -53.742188 13.8125 -52.453125 C 13.8125 -51.148438 13.367188 -50.046875 12.484375 -49.140625 C 11.609375 -48.242188 10.546875 -47.796875 9.296875 -47.796875 Z M 12.609375 -41.109375 L 12.609375 0 L 5.78125 0 L 5.78125 -41.109375 Z M 12.609375 -41.109375 "/></g></g></g><g fill="#ffffff" fill-opacity="1"><g transform="translate(444.076565, 220.982841)"><g><path d="M 12.609375 -55.515625 L 12.609375 0 L 5.78125 0 L 5.78125 -55.515625 Z M 12.609375 -55.515625 "/></g></g></g><g fill="#ffffff" fill-opacity="1"><g transform="translate(462.532313, 220.982841)"><g><path d="M 3.21875 -20.703125 C 3.21875 -24.910156 4.066406 -28.601562 5.765625 -31.78125 C 7.472656 -34.957031 9.8125 -37.421875 12.78125 -39.171875 C 15.757812 -40.921875 19.101562 -41.796875 22.8125 -41.796875 C 26.007812 -41.796875 28.984375 -41.054688 31.734375 -39.578125 C 34.484375 -38.097656 36.585938 -36.160156 38.046875 -33.765625 L 38.046875 -55.515625 L 44.9375 -55.515625 L 44.9375 0 L 38.046875 0 L 38.046875 -7.734375 C 36.691406 -5.273438 34.6875 -3.257812 32.03125 -1.6875 C 29.382812 -0.113281 26.285156 0.671875 22.734375 0.671875 C 19.078125 0.671875 15.757812 -0.226562 12.78125 -2.03125 C 9.8125 -3.832031 7.472656 -6.359375 5.765625 -9.609375 C 4.066406 -12.859375 3.21875 -16.554688 3.21875 -20.703125 Z M 38.046875 -20.640625 C 38.046875 -23.734375 37.421875 -26.429688 36.171875 -28.734375 C 34.921875 -31.035156 33.226562 -32.796875 31.09375 -34.015625 C 28.96875 -35.242188 26.628906 -35.859375 24.078125 -35.859375 C 21.535156 -35.859375 19.210938 -35.257812 17.109375 -34.0625 C 15.003906 -32.863281 13.328125 -31.113281 12.078125 -28.8125 C 10.828125 -26.507812 10.203125 -23.804688 10.203125 -20.703125 C 10.203125 -17.554688 10.828125 -14.816406 12.078125 -12.484375 C 13.328125 -10.160156 15.003906 -8.382812 17.109375 -7.15625 C 19.210938 -5.9375 21.535156 -5.328125 24.078125 -5.328125 C 26.628906 -5.328125 28.96875 -5.9375 31.09375 -7.15625 C 33.226562 -8.382812 34.921875 -10.160156 36.171875 -12.484375 C 37.421875 -14.816406 38.046875 -17.535156 38.046875 -20.640625 Z M 38.046875 -20.640625 "/></g></g></g><g fill="#ffffff" fill-opacity="1"><g transform="translate(513.248086, 220.982841)"><g><path d="M 7.953125 0.453125 C 6.648438 0.453125 5.546875 0.00390625 4.640625 -0.890625 C 3.742188 -1.796875 3.296875 -2.898438 3.296875 -4.203125 C 3.296875 -5.503906 3.742188 -6.601562 4.640625 -7.5 C 5.546875 -8.40625 6.648438 -8.859375 7.953125 -8.859375 C 9.203125 -8.859375 10.265625 -8.40625 11.140625 -7.5 C 12.015625 -6.601562 12.453125 -5.503906 12.453125 -4.203125 C 12.453125 -2.898438 12.015625 -1.796875 11.140625 -0.890625 C 10.265625 0.00390625 9.203125 0.453125 7.953125 0.453125 Z M 7.953125 0.453125 "/></g></g></g><g fill="#ffffff" fill-opacity="1"><g transform="translate(529.003029, 220.982841)"><g/></g></g><g fill="#ffffff" fill-opacity="1"><g transform="translate(549.034263, 220.982841)"><g><path d="M 22.359375 0.53125 C 18.910156 0.53125 15.820312 -0.0820312 13.09375 -1.3125 C 10.363281 -2.539062 8.222656 -4.238281 6.671875 -6.40625 C 5.128906 -8.582031 4.332031 -11.097656 4.28125 -13.953125 L 11.5625 -13.953125 C 11.8125 -11.503906 12.820312 -9.441406 14.59375 -7.765625 C 16.363281 -6.085938 18.953125 -5.25 22.359375 -5.25 C 25.609375 -5.25 28.171875 -6.0625 30.046875 -7.6875 C 31.921875 -9.3125 32.859375 -11.398438 32.859375 -13.953125 C 32.859375 -15.953125 32.304688 -17.578125 31.203125 -18.828125 C 30.109375 -20.078125 28.734375 -21.023438 27.078125 -21.671875 C 25.429688 -22.328125 23.207031 -23.03125 20.40625 -23.78125 C 16.957031 -24.6875 14.191406 -25.585938 12.109375 -26.484375 C 10.035156 -27.390625 8.257812 -28.800781 6.78125 -30.71875 C 5.3125 -32.644531 4.578125 -35.234375 4.578125 -38.484375 C 4.578125 -41.335938 5.300781 -43.863281 6.75 -46.0625 C 8.195312 -48.269531 10.234375 -49.972656 12.859375 -51.171875 C 15.492188 -52.367188 18.507812 -52.96875 21.90625 -52.96875 C 26.8125 -52.96875 30.828125 -51.742188 33.953125 -49.296875 C 37.078125 -46.847656 38.835938 -43.597656 39.234375 -39.546875 L 31.734375 -39.546875 C 31.484375 -41.546875 30.429688 -43.304688 28.578125 -44.828125 C 26.734375 -46.359375 24.285156 -47.125 21.234375 -47.125 C 18.378906 -47.125 16.050781 -46.382812 14.25 -44.90625 C 12.457031 -43.425781 11.5625 -41.363281 11.5625 -38.71875 C 11.5625 -36.8125 12.097656 -35.257812 13.171875 -34.0625 C 14.242188 -32.863281 15.566406 -31.953125 17.140625 -31.328125 C 18.722656 -30.703125 20.9375 -29.988281 23.78125 -29.1875 C 27.238281 -28.238281 30.015625 -27.300781 32.109375 -26.375 C 34.210938 -25.445312 36.015625 -24.019531 37.515625 -22.09375 C 39.015625 -20.164062 39.765625 -17.550781 39.765625 -14.25 C 39.765625 -11.695312 39.085938 -9.296875 37.734375 -7.046875 C 36.390625 -4.796875 34.390625 -2.96875 31.734375 -1.5625 C 29.085938 -0.164062 25.960938 0.53125 22.359375 0.53125 Z M 22.359375 0.53125 "/></g></g></g><g fill="#ffffff" fill-opacity="1"><g transform="translate(593.072957, 220.982841)"><g><path d="M 3.21875 -20.640625 C 3.21875 -24.890625 4.066406 -28.601562 5.765625 -31.78125 C 7.472656 -34.957031 9.835938 -37.421875 12.859375 -39.171875 C 15.890625 -40.921875 19.359375 -41.796875 23.265625 -41.796875 C 28.316406 -41.796875 32.476562 -40.566406 35.75 -38.109375 C 39.03125 -35.660156 41.195312 -32.257812 42.25 -27.90625 L 34.890625 -27.90625 C 34.191406 -30.40625 32.828125 -32.378906 30.796875 -33.828125 C 28.773438 -35.285156 26.265625 -36.015625 23.265625 -36.015625 C 19.359375 -36.015625 16.203125 -34.675781 13.796875 -32 C 11.398438 -29.320312 10.203125 -25.535156 10.203125 -20.640625 C 10.203125 -15.679688 11.398438 -11.851562 13.796875 -9.15625 C 16.203125 -6.457031 19.359375 -5.109375 23.265625 -5.109375 C 26.265625 -5.109375 28.765625 -5.804688 30.765625 -7.203125 C 32.765625 -8.597656 34.140625 -10.597656 34.890625 -13.203125 L 42.25 -13.203125 C 41.144531 -9.003906 38.941406 -5.640625 35.640625 -3.109375 C 32.335938 -0.585938 28.210938 0.671875 23.265625 0.671875 C 19.359375 0.671875 15.890625 -0.203125 12.859375 -1.953125 C 9.835938 -3.703125 7.472656 -6.175781 5.765625 -9.375 C 4.066406 -12.582031 3.21875 -16.335938 3.21875 -20.640625 Z M 3.21875 -20.640625 "/></g></g></g><g fill="#ffffff" fill-opacity="1"><g transform="translate(638.612155, 220.982841)"><g><path d="M 3.21875 -20.703125 C 3.21875 -24.910156 4.066406 -28.601562 5.765625 -31.78125 C 7.472656 -34.957031 9.8125 -37.421875 12.78125 -39.171875 C 15.757812 -40.921875 19.078125 -41.796875 22.734375 -41.796875 C 26.335938 -41.796875 29.460938 -41.019531 32.109375 -39.46875 C 34.765625 -37.914062 36.742188 -35.960938 38.046875 -33.609375 L 38.046875 -41.109375 L 44.9375 -41.109375 L 44.9375 0 L 38.046875 0 L 38.046875 -7.65625 C 36.691406 -5.25 34.675781 -3.257812 32 -1.6875 C 29.320312 -0.113281 26.207031 0.671875 22.65625 0.671875 C 19.007812 0.671875 15.707031 -0.226562 12.75 -2.03125 C 9.800781 -3.832031 7.472656 -6.359375 5.765625 -9.609375 C 4.066406 -12.859375 3.21875 -16.554688 3.21875 -20.703125 Z M 38.046875 -20.640625 C 38.046875 -23.734375 37.421875 -26.429688 36.171875 -28.734375 C 34.921875 -31.035156 33.226562 -32.796875 31.09375 -34.015625 C 28.96875 -35.242188 26.628906 -35.859375 24.078125 -35.859375 C 21.535156 -35.859375 19.210938 -35.257812 17.109375 -34.0625 C 15.003906 -32.863281 13.328125 -31.113281 12.078125 -28.8125 C 10.828125 -26.507812 10.203125 -23.804688 10.203125 -20.703125 C 10.203125 -17.554688 10.828125 -14.816406 12.078125 -12.484375 C 13.328125 -10.160156 15.003906 -8.382812 17.109375 -7.15625 C 19.210938 -5.9375 21.535156 -5.328125 24.078125 -5.328125 C 26.628906 -5.328125 28.96875 -5.9375 31.09375 -7.15625 C 33.226562 -8.382812 34.921875 -10.160156 36.171875 -12.484375 C 37.421875 -14.816406 38.046875 -17.535156 38.046875 -20.640625 Z M 38.046875 -20.640625 "/></g></g></g><g fill="#ffffff" fill-opacity="1"><g transform="translate(689.327927, 220.982841)"><g><path d="M 12.609375 -55.515625 L 12.609375 0 L 5.78125 0 L 5.78125 -55.515625 Z M 12.609375 -55.515625 "/></g></g></g><g fill="#ffffff" fill-opacity="1"><g transform="translate(707.783676, 220.982841)"><g><path d="M 43.296875 -22.140625 C 43.296875 -20.835938 43.21875 -19.457031 43.0625 -18 L 10.203125 -18 C 10.453125 -13.957031 11.835938 -10.796875 14.359375 -8.515625 C 16.890625 -6.242188 19.957031 -5.109375 23.5625 -5.109375 C 26.507812 -5.109375 28.972656 -5.796875 30.953125 -7.171875 C 32.929688 -8.546875 34.316406 -10.382812 35.109375 -12.6875 L 42.46875 -12.6875 C 41.363281 -8.726562 39.160156 -5.507812 35.859375 -3.03125 C 32.554688 -0.5625 28.457031 0.671875 23.5625 0.671875 C 19.65625 0.671875 16.164062 -0.203125 13.09375 -1.953125 C 10.019531 -3.703125 7.601562 -6.1875 5.84375 -9.40625 C 4.09375 -12.632812 3.21875 -16.378906 3.21875 -20.640625 C 3.21875 -24.890625 4.066406 -28.613281 5.765625 -31.8125 C 7.472656 -35.007812 9.863281 -37.472656 12.9375 -39.203125 C 16.019531 -40.929688 19.5625 -41.796875 23.5625 -41.796875 C 27.457031 -41.796875 30.90625 -40.941406 33.90625 -39.234375 C 36.914062 -37.535156 39.234375 -35.195312 40.859375 -32.21875 C 42.484375 -29.25 43.296875 -25.890625 43.296875 -22.140625 Z M 36.234375 -23.5625 C 36.234375 -26.164062 35.65625 -28.40625 34.5 -30.28125 C 33.351562 -32.15625 31.789062 -33.578125 29.8125 -34.546875 C 27.84375 -35.523438 25.660156 -36.015625 23.265625 -36.015625 C 19.804688 -36.015625 16.863281 -34.910156 14.4375 -32.703125 C 12.007812 -30.503906 10.625 -27.457031 10.28125 -23.5625 Z M 36.234375 -23.5625 "/></g></g></g><g fill="#ffffff" fill-opacity="1"><g transform="translate(754.298139, 220.982841)"><g><path d="M 7.953125 0.453125 C 6.648438 0.453125 5.546875 0.00390625 4.640625 -0.890625 C 3.742188 -1.796875 3.296875 -2.898438 3.296875 -4.203125 C 3.296875 -5.503906 3.742188 -6.601562 4.640625 -7.5 C 5.546875 -8.40625 6.648438 -8.859375 7.953125 -8.859375 C 9.203125 -8.859375 10.265625 -8.40625 11.140625 -7.5 C 12.015625 -6.601562 12.453125 -5.503906 12.453125 -4.203125 C 12.453125 -2.898438 12.015625 -1.796875 11.140625 -0.890625 C 10.265625 0.00390625 9.203125 0.453125 7.953125 0.453125 Z M 7.953125 0.453125 "/></g></g></g></svg>